<svg xmlns="http://www.w3.org/2000/svg" viewBox="0 0 810 462.487" width="810" height="462.487"><path fill="rgba(255, 255, 255, 0.0)" d="M0 0h810v462.487H0z"/><g stroke="#000" stroke-width="2"><path d="M25 42.32h370"/><path stroke-linecap="square" d="M395 36.547l10 5.774-10 5.773z"/></g><path stroke="#000" stroke-width="2" d="M364 32.32v20"/><g stroke="#000" stroke-width="2"><path d="M225 42.32l185.98 107.377"/><path stroke-linecap="square" d="M413.868 144.697l5.773 10h-11.547z"/></g><path stroke="#000" stroke-width="2" d="M389.134 125.536l-10 17.32"/><g transform="rotate(30 11.567 672.26)"><circle cx="20" cy="20" fill="hsl(35, 60%, 80%)" stroke="#000" stroke-width="2" r="19"/><text font-family="Arial, Helvetica, sans-serif" font-size="18" dominant-baseline="middle" text-anchor="middle" transform="translate(20 20)">f</text></g><g transform="rotate(30 46.208 542.977)"><circle cx="20" cy="20" fill="hsl(253, 60%, 80%)" stroke="#000" stroke-width="2" r="19"/><text font-family="Arial, Helvetica, sans-serif" font-size="18" dominant-baseline="middle" text-anchor="middle" transform="translate(20 20)">e</text></g><g><g stroke="#000" stroke-width="2"><path d="M125 42.32l205.98 118.924"/><path stroke-linecap="square" d="M333.868 156.244l5.773 10h-11.547z"/></g><path stroke="#000" stroke-width="2" d="M309.134 137.083l-10 17.32"/><g transform="rotate(30 -26.886 442.563)"><circle cx="20" cy="20" fill="hsl(79, 60%, 80%)" stroke="#000" stroke-width="2" r="19"/><text font-family="Arial, Helvetica, sans-serif" font-size="18" dominant-baseline="middle" text-anchor="middle" transform="translate(20 20)">d</text></g><g transform="rotate(30 -3.792 356.375)"><circle cx="20" cy="20" fill="hsl(32, 60%, 80%)" stroke="#000" stroke-width="2" r="19"/><text font-family="Arial, Helvetica, sans-serif" font-size="18" dominant-baseline="middle" text-anchor="middle" transform="translate(20 20)">c</text></g></g><g><g stroke="#000" stroke-width="2"><path d="M45 42.32l385.98 222.847"/><path stroke-linecap="square" d="M433.868 260.167l5.773 10h-11.547z"/></g><path stroke="#000" stroke-width="2" d="M409.134 241.006l-10 17.32"/><g transform="rotate(30 -136.168 551.845)"><circle cx="20" cy="20" fill="hsl(44, 60%, 80%)" stroke="#000" stroke-width="2" r="19"/><text font-family="Arial, Helvetica, sans-serif" font-size="18" dominant-baseline="middle" text-anchor="middle" transform="translate(20 20)">b</text></g><g transform="rotate(30 -55.339 250.187)"><circle cx="20" cy="20" fill="hsl(321, 60%, 80%)" stroke="#000" stroke-width="2" r="19"/><text font-family="Arial, Helvetica, sans-serif" font-size="18" dominant-baseline="middle" text-anchor="middle" transform="translate(20 20)">a</text></g></g><g transform="translate(25 307.487)"><rect y="10" width="760" height="48" fill="rgba(255, 255, 255, 0.0)" stroke="#000" stroke-width="2" rx="0"/><text x="380" y="35" font-family="Arial, Helvetica, sans-serif" font-size="24" dominant-baseline="middle" text-anchor="middle">concatAll</text></g><g><g stroke="#000" stroke-width="2"><path d="M25 417.487h750"/><path stroke-linecap="square" d="M775 411.714l10 5.773-10 5.774z"/></g><path stroke="#000" stroke-width="2" d="M744 407.487v20"/><g transform="translate(685 397.487)"><circle cx="20" cy="20" fill="hsl(35, 60%, 80%)" stroke="#000" stroke-width="2" r="19"/><text font-family="Arial, Helvetica, sans-serif" font-size="18" dominant-baseline="middle" text-anchor="middle" transform="translate(20 20)">f</text></g><g transform="translate(625 397.487)"><circle cx="20" cy="20" fill="hsl(253, 60%, 80%)" stroke="#000" stroke-width="2" r="19"/><text font-family="Arial, Helvetica, sans-serif" font-size="18" dominant-baseline="middle" text-anchor="middle" transform="translate(20 20)">e</text></g><g transform="translate(485 397.487)"><circle cx="20" cy="20" fill="hsl(79, 60%, 80%)" stroke="#000" stroke-width="2" r="19"/><text font-family="Arial, Helvetica, sans-serif" font-size="18" dominant-baseline="middle" text-anchor="middle" transform="translate(20 20)">d</text></g><g transform="translate(445 397.487)"><circle cx="20" cy="20" fill="hsl(32, 60%, 80%)" stroke="#000" stroke-width="2" r="19"/><text font-family="Arial, Helvetica, sans-serif" font-size="18" dominant-baseline="middle" text-anchor="middle" transform="translate(20 20)">c</text></g><g transform="translate(245 397.487)"><circle cx="20" cy="20" fill="hsl(44, 60%, 80%)" stroke="#000" stroke-width="2" r="19"/><text font-family="Arial, Helvetica, sans-serif" font-size="18" dominant-baseline="middle" text-anchor="middle" transform="translate(20 20)">b</text></g><g transform="translate(105 397.487)"><circle cx="20" cy="20" fill="hsl(321, 60%, 80%)" stroke="#000" stroke-width="2" r="19"/><text font-family="Arial, Helvetica, sans-serif" font-size="18" dominant-baseline="middle" text-anchor="middle" transform="translate(20 20)">a</text></g></g></svg>