<?xml version="1.0" encoding="utf-8"?>
<!-- Generator: Adobe Illustrator 18.1.1, SVG Export Plug-In . SVG Version: 6.00 Build 0)  -->
<svg version="1.1" id="Layer_1" xmlns="http://www.w3.org/2000/svg" xmlns:xlink="http://www.w3.org/1999/xlink" x="0px" y="0px"
	 viewBox="0 0 544.329956 544.347595" enable-background="new 0 0 544.329956 544.347595" xml:space="preserve">
<g>
	<path fill="#EC168E" d="M292.195312,536.598206c-30.008911-0.93042-59.013794-7.056641-86.880417-17.988342
		C129.629044,488.919281,74.13089,437.937195,42.132427,362.494995c-0.748692-1.765198-1.254826-3.633209-1.874104-5.453308
		c-0.938187-2.047852-0.506447-4.483643-1.823624-6.423553c-0.563038-1.629608-0.67025-3.255585,0.046505-4.869843
		c3.085445-2.027252,4.822586,0.752228,6.710461,2.135742c18.758419,13.747009,37.1371,28.000305,55.701607,42.006561
		c46.971962,35.438629,93.890923,70.947632,140.819183,106.444122c14.471939,10.946594,29.043961,21.761353,43.430496,32.819702
		C287.855438,531.23938,291.061188,532.969971,292.195312,536.598206z"/>
	<path fill="#EC168E" d="M32.670208,341.059448c-9.107895-9.362793-17.612146-19.223877-24.117966-30.612152
		c-6.769446-11.849762-7.919467-23.278473,1.68801-34.689484c9.996439-11.873077,9.368269-25.585693,5.031973-39.556763
		c-2.867504-9.238739-6.089013-18.359039-8.258223-27.823944c-2.819424-12.301971-0.042212-22.986237,8.191051-32.394501
		c5.93701-6.784302,12.139154-13.427948,19.457382-18.617889c11.873112-8.420166,15.71273-20.107208,16.059349-33.842621
		c0.2131-8.444427-0.252319-16.893921,0.903522-25.344299c1.994457-14.581482,9.994873-24.051575,23.495388-29.229767
		c7.625717-2.924896,15.61557-4.769562,23.678818-5.027557c17.972527-0.574982,31.335449-9.362427,42.690781-22.284058
		c4.305054-4.898834,8.801224-9.64978,12.830811-14.766937c13.011765-16.523621,30.566513-21.292023,50.437897-19.214813
		c18.15712,1.897949,33.565552,9.942688,46.35173,22.978485c-2.411911,2.486511-5.846359,0.890442-8.562561,2.161041
		c-3.451767,0.866486-7.072083-0.031921-10.506699,1.018463c-3.089981,0.629761-6.300949,0.361053-9.352997,1.272705
		c-3.507385,1.015564-7.177277,1.124115-10.719971,1.937866c-4.184708,1.271545-8.546432,1.801392-12.734222,3.057556
		c-4.70195,0.908234-9.139618,2.689331-13.663406,4.180634c-4.605408,1.641418-9.233383,3.225586-13.69104,5.25235
		c-5.491653,2.004547-10.663834,4.701752-15.853455,7.357819c-5.801712,2.783905-11.30455,6.092957-16.717789,9.556061
		c-4.746613,2.970428-9.464523,5.984741-13.949791,9.346069c-3.742371,2.570251-7.160873,5.550293-10.648384,8.442719
		c-4.012741,2.926788-7.50238,6.476532-11.368103,9.577362c-3.952698,3.810089-7.792351,7.732544-11.650436,11.6362
		c-2.936386,2.473846-4.728386,5.951752-7.492157,8.577423c-4.46933,5.016388-8.430237,10.432526-12.452332,15.800385
		c-3.247864,4.547272-6.242523,9.263153-9.323753,13.921753c-3.110573,5.064667-6.209915,10.133331-8.738392,15.526672
		c-2.625294,5.131317-5.331242,10.220428-7.534,15.560822c-10.649246,24.600128-17.310078,50.276642-20.699247,76.816071
		c-3.414032,26.734039-1.260208,53.036255,6.324932,78.916138C32.763683,333.915955,35.230198,337.324585,32.670208,341.059448z"/>
	<path fill="#EB0B8D" d="M336.705902,534.62738c-10.861664,1.954651-21.808014,2.533142-32.821533,2.019653
		c-12.181213-8.128662-23.641937-17.239563-35.302002-26.069702c-26.995407-20.443665-54.050461-40.808533-81.024826-61.27948
		c-47.626297-36.143951-95.445847-72.032471-142.981659-108.29541c-2.649117-2.020905-5.801079-3.403809-7.932381-6.116028
		c-2.159546-8.707581-1.130795-17.495972-0.722832-26.26062c1.955566-3.799316,4.176949-1.303619,5.908615,0.026428
		c13.84407,10.63324,27.956062,20.909576,41.834076,31.49585c27.334656,20.851257,54.851509,41.46167,82.242287,62.238129
		c55.615295,42.185272,111.332397,84.235535,167.001831,126.349091
		C334.750092,530.129211,338.044067,531.007385,336.705902,534.62738z"/>
	<path fill="#512C86" d="M37.227848,307.104492c-0.184013,9.528992-1.002789,19.077576,0.882664,28.542572
		c2.136093,2.982758,1.671036,6.247498,1.033333,9.530975c0.027596,1.740082,0.055191,3.480164,0.082779,5.220215
		c0.516167,1.083313,0.931602,2.12207-0.948708,2.145874c-2.281425-3.62677-2.729469-8.148651-5.607544-11.484436
		c-0.461952-7.27475-3.624729-13.874634-5.245441-20.872467c-8.263813-35.681183-5.450184-70.905518,3.685753-105.946869
		c3.638378-13.9552,7.98991-27.656342,14.271069-40.682587c3.953552,0.590088,3.451107,3.854614,3.70253,6.468567
		c1.535908,15.968262,3.496002,31.862793,7.583168,47.417725c0.186485,2.011841-0.57682,3.801727-1.32859,5.592468
		c-0.886742,1.804321-1.827045,3.587921-2.681625,5.413544c-0.821831,1.520844-1.451687,3.122437-1.975754,4.770477
		c-1.930573,4.756348-3.698898,9.564728-4.910416,14.562866c-0.836433,3.084259-1.941376,6.093781-2.481552,9.257874
		c-0.807617,3.501373-1.505062,7.020294-1.901878,10.595764c-0.694237,4.230499-1.405106,8.45639-1.781487,12.731415
		c0.031982,4.170715-1.648121,8.190979-1.051353,12.410522C38.487385,304.336487,38.421532,305.895264,37.227848,307.104492z"/>
	<path fill="#E60A8D" d="M37.227844,307.104492c0.026825-1.451965,0.053646-2.903931,0.080467-4.355865
		c0.484062-0.78717-0.002556-2.116089,1.349442-2.422272c3.021564,0.210022,5.108368,2.240051,7.32655,3.908569
		c41.050381,30.878357,82.057968,61.813507,122.917694,92.943939c2.117065,1.612915,4.559555,2.644348,6.746857,4.115601
		c4.864853,5.6539,9.324692,11.728333,14.673386,16.879883c13.929901,13.41629,29.671509,24.281494,47.648254,31.699463
		c4.036148-0.36499,5.956024,3.052582,8.74588,4.907959c1.748154,1.162567,3.301651,2.580322,4.924408,3.906097
		c11.485077,8.979706,23.623138,16.931671,36.684357,23.44812c2.19458,1.094879,4.339081,2.312347,5.796631,4.405823
		c1.915741,3.31897,5.199646,5.175995,8.096527,7.39624c14.507172,11.118439,29.38446,21.750916,43.671997,33.154907
		c1.653503,1.319763,4.918854,2.033081,3.521484,5.482544c-4.073486,1.685974-8.381317,1.920654-12.705872,2.05188
		c-1.743683-4.674561-6.414398-6.262573-9.900116-8.916321c-32.496918-24.740204-65.171844-49.246582-97.786926-73.831696
		c-18.195633-13.71579-36.396881-27.424286-54.557999-41.185699c-34.230209-25.937531-68.41275-51.937958-102.659004-77.854248
		C60.346039,324.170105,48.75634,315.677765,37.227844,307.104492z"/>
	<path fill="#EB0F8E" d="M39.143845,345.17804c-1.599403-3.040955-0.899666-6.331116-1.033298-9.530975
		c7.561237,3.194061,13.206234,9.123444,19.628803,13.913361c25.450912,18.980927,50.785873,38.117889,76.107178,57.271912
		c36.933212,27.937714,73.802917,55.959381,110.729095,83.906372c18.182495,13.761169,36.45575,27.402588,54.609558,41.201294
		c1.728516,1.313782,4.080475,2.205872,4.699188,4.707031c-3.896332-0.016296-7.792725-0.032593-11.689056-0.048828
		c-33.494324-25.492615-66.964584-51.016937-100.491226-76.46701c-23.474625-17.81958-47.02916-35.533875-70.542793-53.302094
		c-25.609215-19.351746-51.209236-38.715668-76.82531-58.058319C42.657814,347.503632,40.876938,346.372498,39.143845,345.17804z"/>
	<path fill="#D5128C" d="M389.753693,71.767639c16.975861,10.222839,32.496887,22.300903,46.428192,36.406311
		c19.4729,35.555725,11.021851,81.685333-25.546417,106.456696c-3.799744,2.573944-7.095795,6.727875-12.636017,4.585815
		c-3.189758,0.02594-6.406067,0.301727-9.453888-1.00589c-0.256439-3.170105,2.456299-3.457489,4.381714-4.34726
		c24.513885-11.328369,39.980225-29.72876,43.537964-56.899689c4.893524-37.372375-18.800568-70.39325-53.685608-76.53009
		c-47.818726-8.412048-80.665955,30.343445-80.836243,66.478271c-0.087952,18.656158,4.411621,35.158661,16.977661,49.20874
		c1.417542,1.58493,3.306,3.393372,1.903839,6.037598c-4.043427-0.921448-8.005829-2.077362-11.690277-4.038025
		c-9.441803-10.663635-14.029602-23.468048-16.039917-37.278992c-6.087799-41.82309,22.577301-85.494751,70.950134-91.146423
		C372.76239,68.676147,381.21225,70.732452,389.753693,71.767639z"/>
	<path fill="#EB0B8D" d="M293.294128,487.057526c-9.13681-6.72113-19.994507-10.600342-28.976379-17.593384
		c-4.381348-3.411133-8.912994-6.629242-13.376572-9.934723c-3.799622-7.591278-9.014145-14.306763-13.768051-21.253571
		c-11.448685-16.729919-22.737564-33.573517-34.406448-50.153534c-0.607986-0.863892-0.846497-1.948853-1.648331-2.690155
		l0.018433,0.042358c-1.108643-2.018524,0.075348-4.323273-0.795563-6.37146
		c-0.408356-3.667206,1.652649-1.143524,1.996933-0.613068c4.939865,7.610657,12.326202,12.784546,18.688522,18.971191
		c13.751312,13.371552,29.260834,24.521729,44.885559,35.526337c-0.173615,1.775543,1.075684,2.893494,1.945129,4.180695
		c10.212463,15.118988,20.477142,30.202118,30.800995,45.245361c1.402832,2.044159,4.904144,4.46814,0.96933,7.484375
		C296.946014,490.222107,295.072906,488.744781,293.294128,487.057526z"/>
	<path fill="#C9148C" d="M286.896667,189.689423c-4.811737-1.28656-9.298615-3.367157-13.718018-5.61261
		c-3.442505-7.076019-4.751282-14.707214-5.568268-22.412476c-3.479553-32.816406,7.086578-61.108612,28.683868-85.368134
		c11.814728-13.271088,27.016174-21.844055,43.774933-27.60379c1.64624-0.565796,3.39328-0.972229,5.081055,0.022308
		c4.89209,1.447754,9.504517,3.537445,13.92572,6.066223c0.194244,3.961792-3.178009,3.749542-5.464355,4.309265
		c-10.511566,2.573395-20.704437,5.895538-29.761963,11.99472c-24.984131,16.823944-39.419342,40.017548-43.059479,70.107391
		c-1.724579,14.255859,1.074768,27.63559,5.294342,40.991333C286.839539,184.573578,288.68338,186.974121,286.896667,189.689423z"/>
	<path fill="#BE198C" d="M262.42334,179.361969c-2.417236-0.910645-4.834534-1.821289-7.251785-2.731903
		c-1.732941-0.481842-3.601593-0.766235-4.216843-2.886749c-3.556259-15.814117-3.092453-31.639069-0.065262-47.462189
		c0.429642-2.245697,0.845123-4.477142,0.497482-6.76712c-0.306305-2.776825,1.168167-5.01355,2.321457-7.322357
		c2.944138-5.893921,6.167343-11.665497,7.565475-18.198883c11.336548-22.105743,27.344543-39.900299,48.761963-52.675964
		c2.024353-1.20755,3.829834-3.22113,6.613586-2.162292c4.797577,0.802032,9.472443,2.011566,13.859619,4.175812
		c-0.486755,2.348846-2.305206,3.440186-4.227142,4.377472c-22.527893,10.986237-39.845093,27.466888-51.63504,49.563843
		c-7.991516,14.977875-12.185242,31.091034-12.749023,48.074646c-0.298157,8.980377-0.105103,17.938751,1.806152,26.808411
		C264.213501,174.519287,265.404236,177.430695,262.42334,179.361969z"/>
	<path fill="#CC128C" d="M44.603638,257.270874c1.179939-5.124664,2.786758-10.098206,5.229897-14.775757
		c2.018188-0.649048,3.381588,0.711121,4.721287,1.73056c30.546619,23.244354,61.261761,46.265961,91.817719,69.497742
		c0.276657,0.210327,0.493423,0.50119,0.745743,0.747131c0.041534,2.405731,0.083069,4.811401,0.124619,7.217133
		c1.013702,2.075195-0.012955,4.371399,0.701782,6.479004c0.091202,1.433685,0.182388,2.867401,0.273575,4.301086
		c-3.68924,0.767151-5.802734-2.044067-8.211639-3.851562c-29.100555-21.834778-58.095657-43.809692-87.092285-65.782471
		C50.251038,260.815582,47.562462,258.843567,44.603638,257.270874z"/>
	<path fill="#DB108C" d="M369.309479,215.019226c-10.486725-1.129608-20.570251-3.983795-30.580658-7.150482
		c-15.467102-8.338104-25.713928-20.986633-30.921417-37.70816c-7.000305-22.478363-3.415375-43.393188,10.765259-61.981201
		c14.806213-19.40802,35.041748-28.632751,59.24646-25.427643c27.847687,3.687469,45.79657,20.268005,53.88443,47.168243
		c11.801147,39.25061-16.957703,84.206207-61.916412,85.316528C369.629822,215.240387,369.468781,215.09494,369.309479,215.019226z"
		/>
	<path fill="#DF0E8C" d="M38.299812,290.082367c0.44754-4.25351,0.375916-8.585968,1.926056-12.671906
		c3.120266-1.679077,4.939808,0.843933,6.913216,2.325317c27.330498,20.516144,54.593483,41.122131,81.79277,61.811951
		c8.547821,6.502075,17.373062,12.640045,25.639923,19.511169c2.878616,6.691589,5.757248,13.38324,8.635895,20.07486
		c-3.340042,1.643829-5.322266-1.112732-7.367783-2.639862c-13.990829-10.444824-27.964691-20.915192-41.856361-31.491394
		c-22.873863-17.414795-45.921898-34.598877-68.75531-52.066406C42.983421,293.218872,40.601631,291.710815,38.299812,290.082367z"
		/>
	<path fill="#D8118C" d="M320.82489,202.158142c-1.030884-4.376099-4.836212-6.777496-7.229797-10.182587
		c-8.632904-12.281067-12.882111-25.783478-13.04361-40.963776c-0.183441-17.24823,4.146271-32.767456,15.017548-46.109161
		c13.253571-16.26535,29.819733-25.991089,51.562561-26.721313c21.555267-0.723877,39.231232,6.531403,53.598999,22.288025
		c11.083038,12.154327,16.753418,26.638153,17.592346,42.98349c0.735657,14.334045-1.799744,27.997375-9.334595,40.44281
		c-8.699554,14.36908-20.472839,25.248993-36.202637,31.577179c-1.586334,0.638214-3.550934,0.704651-4.240143,2.737732
		c-4.716827-0.058411-9.339264-0.719971-13.83905-2.165375c2.411438-2.009399,5.495575-2.320496,8.338959-3.001831
		c44.751862-10.723694,66.985779-65.610413,37.307037-105.089142c-21.912048-29.147522-59.670105-33.513062-87.80188-12.794312
		c-33.76474,24.86734-37.255066,73.200226-6.963684,102.980591c2.177673,2.140961,6.508728,2.811432,5.819427,7.305237
		C327.712433,204.886658,324.178925,203.811249,320.82489,202.158142z"/>
	<path fill="#CC138C" d="M286.896637,189.689423c-2.111725-7.415466-4.548248-14.756348-6.27124-22.261078
		c-4.31366-18.788757-1.522491-37.077606,6.087189-54.395752c12.551575-28.564819,33.882782-47.295074,64.558929-54.836884
		c2.714233-0.667328,6.190643-0.05722,7.804413-3.414703c4.883453,2.610535,9.766907,5.221161,14.65033,7.831787
		c-0.510132,2.757568-2.905762,2.134644-4.62027,2.39328c-8.356079,1.26059-16.700409,2.180542-24.825043,4.981049
		c-32.258545,11.119263-55.697815,43.872101-56.026001,78.036987c-0.13205,13.749329,3.037506,26.525391,8.480438,38.941498
		c0.949554,2.166016,2.746368,4.323486,0.779846,6.858093C293.786896,192.930603,290.199615,191.67514,286.896637,189.689423z"/>
	<path fill="#C3168C" d="M262.42334,179.361969c1.494629-4.795502-0.55481-9.359375-1.146118-13.961029
		c-2.684235-20.889221,0.222351-40.929352,8.068634-60.381866c4.386627-10.875336,10.52774-20.806396,18.201477-29.45166
		c10.380341-11.69458,22.296204-21.858978,36.742493-28.431152c2.303375-1.047913,4.080933-2.656036,6.219177-3.805908
		c5.131226,1.112854,9.983582,2.983978,14.641266,5.384369c-13.948334,3.649506-26.302643,10.407074-37.680634,19.14386
		c-11.054443,8.488281-19.294708,19.345612-25.911804,31.392151c-7.059998,12.852936-11.168915,26.670502-12.730408,41.368835
		c-1.431671,13.476501,0.117279,26.44046,4.11026,39.262238c0.404053,1.297516,0.175781,2.791962,0.240967,4.195038
		C269.593536,182.505219,266.008453,180.933594,262.42334,179.361969z"/>
	<path fill="#D2128C" d="M44.603638,257.270874c1.950573-1.113617,3.304329,0.118195,4.716507,1.182251
		c21.274826,16.03009,42.57402,32.028046,63.820534,48.095612c9.505562,7.188507,18.878319,14.552551,28.377998,21.748993
		c2.087967,1.581696,4.458923,2.789856,6.699585,4.170044c1.004898,5.281433,2.009796,10.562805,3.014679,15.844238
		c-2.8414-0.140991-4.75589-2.115662-6.806442-3.65094c-33.20488-24.860229-66.167839-50.04126-99.322708-74.968079
		c-1.11282-0.836639-2.337982-1.592407-2.96146-2.93692C42.352798,263.436066,43.627487,260.392212,44.603638,257.270874z"/>
	<path fill="#D9108C" d="M42.14233,266.756073c7.497379,3.546295,13.47678,9.276215,20.005146,14.170685
		c27.98967,20.984436,55.792702,42.217773,83.675705,63.344666c1.793427,1.358826,4.111282,2.015442,5.40976,4.040588
		c1.11293,4.248962,2.225891,8.497925,3.338837,12.746887c-6.882263-2.233521-11.719269-7.582275-17.301666-11.697754
		c-21.453018-15.815704-42.652962-31.97522-63.914963-48.049255c-9.372467-7.085571-18.681271-14.255737-27.984276-21.432465
		c-1.563202-1.205902-3.129013-2.270416-5.144951-2.468964C40.119263,273.724915,41.053391,270.226562,42.14233,266.756073z"/>
	<path fill="#BD1A8C" d="M149.357483,283.955078c0.130066,3.176941-0.343079,6.275208-1.215363,9.321472
		c-2.412964,0.828369-4.072922-0.782349-5.678619-1.999359c-27.871552-21.124756-55.812683-42.157562-83.662323-63.311188
		c-0.419132-0.318359-0.718864-0.766296-0.992535-1.221802c-0.663731-3.840149,2.550968-5.939697,3.964535-8.854614
		c0.824501-1.038208,1.721981-1.981018,3.090649-2.281097c4.224266,1.174072,7.168602,4.364471,10.483368,6.890472
		c23.382362,17.818695,46.941353,35.403625,70.335663,53.206268C148.486588,277.838806,151.000244,279.923889,149.357483,283.955078
		z"/>
	<path fill="#512C87" d="M493.366699,209.521088c0.369019-16.597321-0.098785-33.102875-5.149658-49.137177
		c-1.389923-4.412476-2.65976-8.861542-5.61731-13.654236c19.862732,15.077454,35.602539,54.118286,30.675415,93.66272
		c-1.84021,2.951782-3.629425,1.384857-4.898224-0.343842c-5.191986-7.073822-9.967773-14.443634-14.650635-21.856873
		C492.113251,215.638092,492.623322,212.455048,493.366699,209.521088z"/>
	<path fill="#AA218D" d="M467.813995,474.312531c-3.486816,3.54718-7.119232,6.923004-11.327728,9.620453
		c-3.380188,0.450348-6.805969,0.199341-10.032501,2.016968c-2.533813,1.427399-4.21582-0.786652-5.621979-2.646393
		c-3.827972-5.062653-7.292542-10.388031-10.84906-15.63385c-11.175354-16.483582-22.47049-32.884644-33.669159-49.351776
		c-1.243164-1.827972-3.067078-3.543213-2.376434-6.164307c3.83371-1.575348,7.667419-3.150696,11.501129-4.726074
		c2.35022,0.920959,3.178558,3.214844,4.444092,5.063629c13.73822,20.070221,27.367676,40.215057,41.238373,60.194366
		c3.856232,5.554504,3.911133,5.516418,9.850922,1.644989C463.247833,472.975037,465.529907,471.338654,467.813995,474.312531z"/>
	<path fill="#DF0E8C" d="M299.660858,451.179199c4.595612,1.789764,9.191223,3.579498,13.786835,5.369232
		c1.963989,1.003784,3.151276,2.762634,4.289246,4.531067c7.512817,11.6745,15.717804,22.879578,23.350281,34.472382
		c1.637177,2.486603,3.466949,4.860077,4.005005,7.930817c0.399628,2.280609,2.273682,3.474854,3.970703,4.713104
		c6.246216,4.5578,12.273315,9.401489,18.372192,14.148499c1.761932,1.37146,4.545288,2.530701,3.148529,5.771851
		c-4.234436,1.045105-8.468811,2.090271-12.703217,3.135376c-13.320526-9.334534-25.878296-19.684937-38.985199-29.305359
		c-1.645142-1.207458-3.425201-2.62381-2.648987-5.195953c0.351227-0.382202,0.786957-0.601776,1.302002-0.664978
		c3.75882,0.508728,7.290894,2.190216,11.827667,2.687012c-2.24469-4.81601-4.978821-8.468658-7.636108-12.104462
		c-6.764587-9.255463-12.591705-19.145844-19.42334-28.355438C300.804626,456.274353,298.877686,454.170227,299.660858,451.179199z"
		/>
	<path fill="#A9218D" d="M159.930725,247.894836c-1.147949,2.764618-2.295868,5.529236-3.443787,8.293854
		c-2.626526,0.712799-4.389236-1.048279-6.144852-2.382355c-23.296188-17.702362-46.751495-35.19458-69.981857-52.983704
		c-0.98436-0.753784-1.930679-1.547089-2.365311-2.776459c0.822258-3.860992,3.6185-6.121429,6.647797-8.196686
		c2.319489-0.364929,4.06588,0.846954,5.76545,2.140381c21.898903,16.665863,43.846321,33.267578,65.794502,49.868347
		C158.099503,243.292938,161.318207,244.277435,159.930725,247.894836z"/>
	<path fill="#E30C8C" d="M38.299812,290.082367c2.5522-1.274231,3.944435,0.981354,5.429932,2.097748
		c34.425774,25.871643,68.800041,51.812073,103.127464,77.814117c5.272156,3.993561,9.954712,8.810059,16.350433,11.139526
		c2.491791,4.227386,4.983551,8.454712,7.475327,12.682098c-3.246536,1.825256-5.34166-0.724396-7.432251-2.259186
		c-11.911026-8.744232-23.71994-17.628448-35.484131-26.570404c-28.008446-21.289185-56.064255-42.515625-84.211876-63.620483
		c-1.638794-1.22876-3.292664-3.057495-5.407532-0.649841c-0.280178,0.677917-0.560349,1.355804-0.839699,2.033203
		C36.634911,298.447968,38.093792,294.314209,38.299812,290.082367z"/>
	<path fill="#762A8A" d="M456.217804,313.359772c2.389191-3.920563,4.778351-7.841156,7.16748-11.761749
		c2.047882-0.833496,2.927277,0.780884,3.775879,2.002808c13.876678,19.981628,27.351196,40.239136,41.250336,60.205872
		c0.297333,0.427185,0.442108,0.958923,0.644714,1.447754c-2.28656,3.880554-4.888,7.521667-8.120636,10.683044
		c-2.309174,0.624146-3.122894-1.252808-4.001343-2.627686c-4.813538-7.533752-10.45694-14.509216-14.952423-22.253235
		C473.310822,338.547729,464.420441,326.188568,456.217804,313.359772z"/>
	<path fill="#8B288C" d="M199.242203,202.307251c-3.138397,2.484589-6.276764,4.969177-9.415161,7.453766
		c-2.547897,1.232697-4.417572-0.249084-6.236526-1.647858c-18.448944-14.187164-37.247192-27.914185-55.602348-42.224304
		c-1.660233-1.294342-3.435028-2.555054-3.595528-4.962769c0.136406-0.838165,0.616196-1.440186,1.298256-1.906708
		c3.072411-1.506104,6.169243-2.951843,9.606377-3.44986c1.838379-0.138214,3.451416,0.41925,4.911804,1.536957
		c19.283127,14.758545,38.572525,29.508881,58.101135,43.942993C198.735779,201.363983,199.020294,201.82196,199.242203,202.307251z
		"/>
	<path fill="#B91B8C" d="M149.357483,283.955078c0.147202-2.610016-0.664658-4.361267-3.020203-6.110413
		c-20.100334-14.925751-40.04216-30.065338-60.000977-45.181091c-7.25708-5.496124-14.43174-11.101074-21.64399-16.656372
		c-0.417191-3.120026,1.155235-5.295654,3.390846-7.163818c0.675262-0.398529,1.394577-0.661926,2.185333-0.698578
		c3.259201,0.802094,5.132416,3.59314,7.64563,5.447052c23.920982,17.645721,47.398415,35.881866,71.233994,53.642273
		c1.131317,0.842957,2.283783,1.641174,3.161484,2.764893C151.325577,274.651062,150.341522,279.30304,149.357483,283.955078z"/>
	<path fill="#B01F8D" d="M393.937134,412.153625c12.857117,18.960999,25.700409,37.931458,38.581177,56.876434
		c3.242737,4.76944,6.716339,9.384979,9.864929,14.21402c1.516846,2.326477,3.541473,2.705566,5.166138,1.111237
		c3.06015-3.00296,5.896362-1.811096,8.936859-0.422363c-2.473053,2.650757-5.30191,4.842163-8.486664,6.574188
		c-3.635162-2.891174-7.171753-1.327698-10.710541,0.244965c-0.512817,0.034943-1.005127-0.047455-1.483246-0.233185
		c-5.157501-4.656586-8.24762-10.881897-12.09433-16.479095c-12.027527-17.500824-23.995026-35.045532-35.922333-52.616333
		c-1.236908-1.822174-3.049713-3.535126-2.335999-6.145844C388.281128,414.236298,391.1091,413.194946,393.937134,412.153625z"/>
	<path fill="#A5228D" d="M159.930725,247.894836c0.024429-3.165741-2.943756-3.823029-4.738342-5.19928
		c-21.970123-16.848694-44.051231-33.552734-66.117805-50.275482c-1.263786-0.957733-2.661728-1.726379-4.316505-1.819336
		c-0.647369-1.094391,0.021179-1.914215,0.565697-2.764954c1.759613-1.800568,3.258865-3.960327,5.997803-4.44574
		c2.105217-0.075592,3.659706,1.16806,5.200195,2.308197c22.213303,16.440369,44.028481,33.409027,66.191017,49.917175
		c0.979294,0.729431,2.006409,1.451569,2.526932,2.638214C163.470062,241.467377,161.700394,244.681091,159.930725,247.894836z"/>
	<path fill="#C1178C" d="M58.064873,226.531433c10.443733,6.418884,19.810295,14.32254,29.594208,21.639435
		c18.187561,13.601624,36.133041,27.526642,54.222298,41.260406c1.941147,1.473755,4.166992,2.57251,6.260757,3.845276
		c0.077621,3.283478,0.089294,6.561218-0.845474,9.756958c-4.161789-1.664734-7.30954-4.825592-10.791687-7.45752
		c-26.819061-20.270386-53.47464-40.757141-80.492554-60.764252c-0.71447-0.529083-1.3787-1.088959-1.844276-1.856171
		c0.631641-1.465576,1.263279-2.931122,1.894913-4.396698C56.745193,227.897736,56.396648,226.218933,58.064873,226.531433z"/>
	<path fill="#E60A8D" d="M317.646942,496.589539c-0.352905-0.000702-0.705811-0.001129-1.058716-0.001312
		c-6.406372-0.734955-12.505981-2.171112-16.941162-7.411743c1.885132-1.934143-0.066498-3.260529-0.918182-4.513214
		c-10.746124-15.806213-21.563599-31.564026-32.408325-47.302887c-1.00943-1.464996-2.587524-2.690857-0.408325-4.372833
		c7.007385,4.013,14.014801,8.026093,21.022186,12.039124c11.019318,15.466309,21.405426,31.36731,32.190063,46.995056
		C320.260162,493.667419,322.425812,496.475464,317.646942,496.589539z"/>
	<path fill="#D0138C" d="M397.999451,219.216461c4.311035,1.044006,6.624451-2.331818,9.67688-4.235657
		c10.968475-6.841248,19.648285-15.945221,26.267334-26.915955c9.714935-16.101929,12.492615-33.60144,10.059113-52.181824
		c-1.067566-8.151428-3.823547-15.650024-6.980286-23.084869c-0.649231-1.529114-0.77829-3.04425-0.840607-4.624207
		c4.496674,3.55069,8.403137,7.668091,11.793243,12.281403c5.755646,15.191864,5.955841,30.75296,2.358215,46.336639
		c-5.169739,22.393066-17.038727,40.412048-36.332947,53.268341C408.643768,220.214478,403.269531,220.703094,397.999451,219.216461
		z"/>
	<path fill="#A6228D" d="M461.647064,475.411774c-1.175781,0.765198-2.480164,1.389709-3.501556,2.323761
		c-2.42926,2.221497-4.111237,1.703857-5.889496-0.912628c-14.997223-22.066803-30.072632-44.080475-45.100616-66.126434
		c-0.68869-1.010254-1.149933-2.175598-1.717102-3.26886c2.833435-1.40329,5.666931-2.806488,8.500427-4.209656
		c9.963287,12.92218,18.555664,26.793152,27.814453,40.20285c6.180115,8.950836,12.437012,17.850037,18.367493,26.970978
		C461.110229,471.913757,463.131104,473.133301,461.647064,475.411774z"/>
	<path fill="#91278C" d="M124.94133,160.943115c6.142578,7.116425,14.266556,11.82077,21.555466,17.520325
		c12.425064,9.71579,25.166458,19.026398,37.726105,28.571503c1.721359,1.308228,3.430176,2.442352,5.60405,2.726044
		c-2.567215,2.433868-5.134506,4.867737-7.701813,7.301605c-2.492188,0.619415-3.895325-1.321838-5.458725-2.539917
		c-18.547028-14.449707-37.634857-28.185577-56.187164-42.626892c-2.070206-1.611511-4.320061-3.046112-5.424538-5.598328
		c-0.134346-1.174652,0.423828-2.038177,1.240692-2.789825C119.06147,162.270386,121.354576,159.417847,124.94133,160.943115z"/>
	<path fill="#AF1F8D" d="M78.368164,198.004486c23.567497,17.751953,47.126038,35.515839,70.716293,53.237488
		c2.369171,1.779816,4.930405,3.303925,7.402481,4.946716c-0.884735,2.532349-1.76947,5.064697-2.65419,7.597076
		c-2.192261,0.933075-3.777863-0.490295-5.244034-1.607361c-25.159714-19.169159-50.773972-37.74057-75.558311-57.406921
		c-0.875664-2.475922,1.28595-3.555695,2.353188-5.14502C76.256714,198.868378,76.780334,197.446747,78.368164,198.004486z"/>
	<path fill="#D9108C" d="M370.583649,528.116211c-2.541473-6.123169-9.236877-7.707825-13.34494-12.156982
		c-1.623871-1.758667-3.804871-3.117188-5.943573-4.263702c-5.225342-2.801117-6.809509-8.109833-9.698944-12.695099
		c-8.302979-13.176086-17.284332-25.9245-25.983154-38.851654c-0.780823-1.16037-1.44632-2.398407-2.165344-3.600342
		c4.928314,1.426178,9.856567,2.852417,14.784882,4.278595c8.932739,14.335205,18.734711,28.084564,28.30307,41.991364
		c3.083679,4.481842,7.933075,6.893738,12.019012,10.193207c3.010193,2.430725,6.21814,4.618103,9.259857,7.013123
		c1.602386,1.261719,3.671265,2.31189,3.321045,4.931519C377.618256,526.009583,374.100952,527.062866,370.583649,528.116211z"/>
	<path fill="#AA218D" d="M272.236755,31.723999c2.097992,0.099518,4.195984,0.199005,6.294006,0.298492
		c2.466736,0.379913,2.829041,1.701752,1.604187,3.672302c-0.754913,1.214508-1.934784,2.031433-2.97052,2.977295
		c-14.038239,12.820068-25.509949,27.601654-34.141312,44.566376c-1.023422,2.011536-1.866562,4.28363-4.613831,4.611847
		c-0.784912,0.072052-1.555603-0.012573-2.316299-0.206879c-2.181091-0.735596-4.377243-1.422577-6.65477-1.827606
		c-1.035782-0.34787-1.985764-0.784882-2.063248-2.08197c7.870438-17.105621,18.489258-32.37088,30.763123-46.596283
		C262.036682,32.619141,266.102875,29.811157,272.236755,31.723999z"/>
	<path fill="#BA1B8C" d="M316.649414,39.15451c-16.226685,8.55191-30.012024,19.997711-41.180176,34.585724
		c-4.931152,6.441162-8.967041,13.427673-12.882202,20.498352c-2.750702,1.610229-5.070129-0.540558-7.603241-0.860443
		c-1.031723-0.363861-1.979675-0.827332-2.291306-2.010315c3.78801-11.646301,11.06395-21.242889,18.845108-30.312592
		c7.564606-8.817261,15.904877-17.006409,25.81366-23.338226c1.725708-1.102722,3.268402-2.868591,5.691315-1.794434
		C307.761322,36.228882,312.236359,37.561249,316.649414,39.15451z"/>
	<path fill="#83298B" d="M212.160934,193.943787c-2.004562,1.722076-4.185471,3.155823-6.67601,4.083405
		c-2.551208,1.273071-4.35141-0.340302-6.162323-1.678284c-16.944855-12.519836-33.358902-25.742554-50.432922-38.093201
		c-2.126984-1.538574-4.165375-3.268036-4.962433-5.98111c-0.680237-12.905029,0.861969-25.635468,2.977509-38.31543
		c0.322174-1.931,1.101807-3.724182,2.846085-4.889893c4.686493,0.600708,3.219955,4.909546,4.548859,7.537018
		c-2.610153,9.578491-2.059082,19.516144-3.253113,29.259033c-0.643127,5.247589,2.808975,4.622681,6.070786,4.311523
		c0.816757,0.022003,1.594604,0.204529,2.319992,0.581421c1.675537,4.321625,5.345795,6.7258,8.869003,9.321655
		c14.186142,10.452148,28.205612,21.125763,42.140869,31.909973C211.14386,192.529022,211.84137,193.071869,212.160934,193.943787z"
		/>
	<path fill="#722B89" d="M509.056213,365.254456c-3.441437-2.334351-5.345306-5.96228-7.606171-9.247406
		c-11.688416-16.983795-23.293243-34.025208-34.912994-51.056213c-0.880768-1.290894-1.453125-2.842438-3.151703-3.352753
		c1.899872-3.442688,3.799805-6.885254,5.699738-10.327881c6.238953,7.229858,11.411804,15.223694,16.620544,23.191833
		c0.096008,0.362793,0.191986,0.725586,0.287903,1.088409c2.812897,2.428955,4.890137,5.489105,6.831879,8.571869
		c6.969543,11.06488,15.337555,21.199036,21.680756,32.67514C513.461609,360.114014,510.714325,362.333313,509.056213,365.254456z"
		/>
	<path fill="#C5168C" d="M54.168144,232.955566c6.789707,2.401703,11.686134,7.6521,17.278175,11.778931
		c19.901985,14.687378,39.696861,29.529663,59.216446,44.719238c5.630112,4.381165,12.042068,7.899109,16.633743,13.57959
		c-0.059204,1.695007-0.118591,3.389832-0.177948,5.084595c-3.130341,2.121704-4.93457-0.64624-6.883453-2.078949
		c-19.607864-14.414459-38.730522-29.474884-58.317703-43.917847c-8.800377-6.489136-17.283173-13.392487-26.084641-19.880249
		c-1.519875-1.120331-3.394196-1.985413-4.020111-4.036591C52.089447,236.226562,53.069607,234.564514,54.168144,232.955566z"/>
	<path fill="#D1138C" d="M389.753693,71.767639c-3.264801,3.211914-6.866241,0.510254-9.919189-0.036072
		c-13.922791-2.491425-26.97821,0.350708-39.436981,5.933838c-26.075134,11.685059-40.80899,32.506012-45.797394,60.195435
		c-3.504608,19.452911,1.290863,37.522797,11.378235,54.32016c1.151825,1.918091,3.068329,3.450317,3.15625,5.939117
		c-2.038879,0.179443-3.714081-0.754761-5.368225-1.753357c-8.378052-9.452789-11.922852-21.055481-13.886169-33.087708
		c-4.470398-27.396454,3.372833-51.532684,21.924469-71.68042c14.372223-15.608765,32.825134-24.124298,54.248871-25.188995
		c5.730286-0.28476,11.63327-0.973541,17.218262,1.362762C385.715179,68.645447,387.868683,69.988739,389.753693,71.767639z"/>
	<path fill="#99258C" d="M178.003311,221.331818c-1.786835,2.113983-3.5737,4.227966-5.360565,6.341949
		c-2.225052,0.792389-3.662613-0.66803-5.18895-1.833466c-19.91011-15.202759-39.994186-30.175873-59.892601-45.393585
		c-2.045624-1.564423-4.680267-2.647827-5.440384-5.522614c0.349854-3.128815,3.089439-3.931335,5.199226-5.355011
		c0.960335-0.442688,1.941322-0.774414,3.01918-0.488739c21.205444,16.904144,43.292297,32.658813,64.70433,49.299011
		C176.145218,219.235535,177.380829,219.983795,178.003311,221.331818z"/>
	<path fill="#CC138C" d="M408.820129,513.580688c-3.400208,2.868652-7.552704,4.131287-11.671021,5.466858
		c-7.367279-4.696411-14.554108-9.700378-21.713501-14.666168c-6.183411-4.288818-8.927277-12.012421-13.510193-17.991425
		c-3.622345-4.725739-6.722198-9.8508-9.97052-14.852905c-1.209106-1.861877-3.218628-3.841736-1.825714-6.170807
		c1.280762-2.141632,3.859985-0.714478,5.837067-1.037079c0.689941-0.112518,1.395172,0.004578,1.982605,0.470093
		c1.38974,0.027374,2.77948,0.054749,4.16922,0.082123c5.111237,6.051666,9.341583,12.731079,13.753784,19.281708
		c3.042725,4.517395,6.021881,9.074402,9.263977,13.460693c2.200836,2.97757,4.778961,4.670227,8.544434,5.459412
		C400.039307,504.415985,404.931427,508.404541,408.820129,513.580688z"/>
	<path fill="#D1138C" d="M357.948853,464.799255c-0.526031,0.007812-1.061981-0.046997-1.576294,0.034698
		c-1.825165,0.289978-4.215454-0.961517-5.379486,0.94458c-1.265045,2.071442,1.080963,3.516754,2.046967,4.976318
		c6.459961,9.76059,13.140961,19.374481,19.678162,29.084534c2.137085,3.174377,5.117767,5.098663,8.426819,6.860718
		c6.004974,3.197784,11.64856,6.964447,16.004059,12.347382c-2.987793,1.854065-6.350555,2.752686-9.65863,3.790649
		c-10.152466-7.140259-20.956909-13.451294-27.831207-24.429688c-6.059204-9.676636-12.884338-18.857178-19.192963-28.376068
		c-1.367096-2.062805-3.626617-4.141144-1.641754-7.07724C345.19931,463.569855,351.574066,464.18457,357.948853,464.799255z"/>
	<path fill="#A2238D" d="M461.647064,475.411774c-6.13501-9.132385-12.239929-18.285126-18.411987-27.392426
		c-9.347778-13.793457-18.758575-27.54425-28.08194-41.354065c-0.659637-0.977051-0.821198-2.290344-1.214417-3.447296
		c2.101746-1.077911,4.203461-2.155792,6.305176-3.233673c2.643372,1.151215,3.575012,3.796173,5.032837,5.930267
		c4.467621,6.540192,8.737122,13.21701,13.704559,19.403107c8.028381,13.707947,17.809692,26.245575,26.463318,39.53772
		c1.440704,2.213013,3.20224,3.819519,6.106964,1.922607c1.208405-0.789062,2.634918-1.073669,3.873016,0.166656
		c-2.100861,2.906311-4.736786,5.259918-7.610596,7.367859C465.516785,473.323792,463.466797,473.721802,461.647064,475.411774z"/>
	<path fill="#EB108E" d="M201.118347,385.432159c2.498077,1.449493,4.204834,3.609741,5.79657,5.987274
		c8.683914,12.970703,17.441071,25.892487,26.207474,38.80777c5.615356,8.272949,11.330276,16.478638,16.895569,24.784882
		c0.845718,1.262238,2.808594,2.580017,0.923218,4.517334c-4.323547-3.218506-8.647064-6.437012-12.970642-9.655579
		c-2.820602-5.155487-7.671097-8.524353-11.406342-12.885803c-11.464066-13.386017-20.764618-27.877747-24.689163-45.322632
		C201.417953,389.633728,201.36087,387.512085,201.118347,385.432159z"/>
	<path fill="#D1138D" d="M383.27182,67.7724c-17.822754-0.952118-35.276672,0.528442-51.066223,9.721008
		c-15.709686,9.146057-27.671265,21.734375-34.897888,38.80777c-4.818451,11.384033-7.383118,23.006348-7.174683,35.282196
		c0.249939,14.721008,4.511047,28.301453,11.904205,40.966614c0.700165,1.199463,1.158386,2.540192,1.729065,3.81604
		c-2.131226-0.729919-4.4216-1.069672-6.251068-2.542328c-0.71521-5.873901-4.24939-10.692627-6.033691-16.205658
		c-9.624054-29.735657-4.456604-56.782532,14.215668-81.469849c13.260315-17.532013,31.350189-27.265564,52.59967-31.321442
		c5.067871-0.967316,10.400879-0.611359,15.429382-2.213959C377.405518,63.412476,380.33194,65.604889,383.27182,67.7724z"/>
	<path fill="#A1238D" d="M165.239716,238.253632c-7.441544-3.661743-13.442245-9.373566-20.011658-14.250549
		c-16.464767-12.223114-32.689705-24.768921-49.092018-37.077148c-1.473587-1.105804-2.896492-2.664001-5.032211-2.67865
		c-0.261879-0.269989-0.388336-0.565796-0.37941-0.887329c0.009277-0.334473,0.047585-0.501678,0.111526-0.50351
		c1.446663-1.920319,3.391983-3.096924,5.661316-3.794189c2.303833-0.386871,4.139839,0.723969,5.820663,2.01709
		c22.202789,17.081299,44.788765,33.657471,66.944069,50.801025C168.513885,234.378815,166.826874,236.284729,165.239716,238.253632
		z"/>
	<path fill="#B41D8C" d="M73.140854,204.359467c7.10881,3.523071,12.850182,9.000275,19.169273,13.626495
		c14.274849,10.450623,28.276726,21.275269,42.345299,32.00589c6.265228,4.778748,12.106476,10.137817,19.177246,13.793854
		c-0.507645,2.071136-1.01535,4.142242-1.523071,6.213318c-6.882111-2.557129-11.913635-7.867737-17.631882-12.096832
		c-19.694984-14.566162-39.186226-29.408051-58.726501-44.182739c-2.090981-1.580994-3.994461-3.410004-5.984932-5.123962
		C69.470444,206.01886,71.082962,205.022247,73.140854,204.359467z"/>
	<path fill="#BE198D" d="M434.204651,499.958862c-3.607727,2.849243-7.536407,5.161072-11.74057,7.011688
		c-3.999664-3.381775-7.641815-7.263092-13.806519-6.214325c-2.474823,0.421021-3.850189-2.03949-5.235992-3.898041
		c-5.686462-7.626068-10.749908-15.674805-16.040527-23.568329c-2.703979-4.034271-5.359467-7.96637-11.093018-7.487518
		c-0.693298,0.057953-1.290588-0.49054-1.709747-1.096405c7.140808-0.624817,14.281677-1.249695,21.422485-1.874542
		c5.154785,5.071289,8.672638,11.360626,12.772583,17.213806c2.307068,3.293579,4.633392,6.592133,6.658722,10.059448
		c2.22229,3.804596,4.648376,5.474335,9.385468,3.787537C429.343811,492.280487,433.030548,495.115448,434.204651,499.958862z"/>
	<path fill="#CD138C" d="M414.000397,220.060333c0.65387-3.605927,4.171906-4.644409,6.42868-6.56076
		c22.910309-19.454742,31.868896-44.561829,30.593506-73.928558c-0.280914-6.467773-3.173828-12.558685-3.047485-19.115601
		c3.609192,3.584076,7.121979,7.243561,9.32428,11.927521c2.675751,26.316376-1.797607,50.798553-18.404572,72.214294
		c-2.603699,3.357635-5.650696,6.268158-8.605621,9.280304c-1.495544,1.524475-3.125946,2.975494-2.171143,5.464691
		C423.472778,220.77298,418.723938,220.168243,414.000397,220.060333z"/>
	<path fill="#612C89" d="M501.901947,300.746521c3.492004-4.677917,6.984009-9.355774,10.475983-14.033661
		c4.460083,4.289734,7.439697,9.681549,10.904358,14.707489c3.279968,4.758118,6.284729,9.709808,10.069519,14.106903
		c-1.710205,6.258636-3.707642,12.408905-6.835266,18.13327c-2.4198,0.801941-3.596924-1.038361-4.648132-2.5
		c-6.829285-9.495758-13.36673-19.195404-19.866028-28.919739C501.7052,301.796112,501.71228,301.26001,501.901947,300.746521z"/>
	<path fill="#7C2A8A" d="M456.217804,313.359772c1.080902,0.887573,2.438995,1.584625,3.199921,2.692047
		c7.85733,11.435303,15.618134,22.93689,23.405792,34.420044c-0.363678,3.369568-1.751953,5.606812-5.629059,5.093475
		c-1.562164,0.816345-3.124329,1.63266-4.686462,2.448975c-2.218262,0.719452-3.232452-0.953339-4.277527-2.296417
		c-6.831909-8.779297-12.324951-18.485046-18.903717-27.444031c-0.952576-1.297241-1.483276-2.840942-0.449249-4.438568
		C451.32428,320.343445,453.771057,316.851624,456.217804,313.359772z"/>
	<path fill="#CA138C" d="M428.118042,219.342224c-4.944458-0.275391-3.157776-2.292999-1.03717-4.224213
		c7.848083-7.147186,14.505554-15.257538,19.276031-24.746765c6.364838-12.660614,10.296051-25.941498,10.093689-40.341309
		c-0.082397-5.864136-1.18811-11.856537,0.848785-17.647003c2.75415,3.728394,6.215698,6.969116,7.888641,11.442902
		c-1.681274,9.478912-0.865753,19.236023-3.575989,28.631622c-4.493256,15.576752-11.62085,29.6763-22.343628,41.883179
		c-1.714905,1.95224-3.395752,4.051544-6.172668,4.635986C431.436493,219.09848,429.777283,219.220337,428.118042,219.342224z"/>
	<path fill="#7B2A8A" d="M228.981567,185.444244c-3.6185,1.724854-7.237015,3.449707-10.855515,5.174561
		c-15.118958-11.186188-30.04129-22.632812-44.965103-34.075958c-1.725693-1.323212-4.783386-2.547302-2.322128-5.759644
		c1.275009-0.717743,2.68544-0.748016,4.086594-0.84259c2.296249-0.019073,4.593155-0.066223,6.884399,0.115479
		c2.93132,0.703918,6.102249,0.506287,8.759659,2.267456c0.762039,2.732483,2.961929,4.215698,5.062958,5.786591
		c9.677139,7.235321,19.35556,14.469116,28.990158,21.760956C226.547165,181.327728,228.807098,182.589264,228.981567,185.444244z"
		/>
	<path fill="#D9108C" d="M331.406372,205.445709c-3.59903-5.670929-9.244232-9.446716-13.351501-14.753052
		c-9.335693-12.061127-14.133148-25.887604-13.922394-40.606812c0.469116-32.764923,21.419495-60.874756,54.994812-67.249176
		c33.503998-6.36087,64.944061,16.493073,72.964661,47.642151c9.657532,37.50647-13.215363,74.842255-49.317322,83.480408
		c-2.699921,0.646027-5.075348,2.554474-8.067963,2.085876c-1.872406,0.045197-3.750671,0.12204-5.396545-1.026062
		c9.337433-2.304932,19.05957-3.22113,27.709167-7.98172c19.964539-10.98819,32.066345-27.464203,34.998688-50.245453
		c3.600189-27.969635-6.990082-49.83371-30.465881-64.570526c-17.169708-10.778229-36.186066-11.836731-55.095703-3.861938
		c-23.361603,9.852386-36.92157,28.063049-40.040039,52.734314c-2.917542,23.081543,4.37381,43.265259,22.8078,58.750946
		c3.163116,2.657196,7.397278,4.122375,9.504669,8.023895C336.268616,207.119659,333.629578,206.91095,331.406372,205.445709z"/>
	<path fill="#C8148C" d="M433.095734,218.976624c18.193848-19.03299,29.565857-41.034668,29.622192-67.976257
		c0.005524-2.647522,0.298279-5.247803,2.46994-7.174408c3.004578,3.414215,4.067352,7.818481,6.004425,11.777008
		c1.423706,3.908203-0.343475,7.563721-0.952942,11.292236c-2.649231,16.206268-9.059357,30.827637-18.743866,44.054016
		c-1.346771,1.839386-2.593414,3.743866-4.647644,4.898682C442.445282,217.688538,437.817078,218.537262,433.095734,218.976624z"/>
	<path fill="#D5128C" d="M338.824524,462.955139c-0.244415,3.332886,2.08963,5.536377,3.697845,7.963715
		c5.812653,8.773438,12.102203,17.243805,17.639923,26.182831c5.447296,8.79303,13.607666,14.451508,21.620148,20.351807
		c2.155548,1.587341,4.107025,3.268311,5.708008,5.384644c-2.118286,0.706055-4.236603,1.412109-6.354889,2.118103
		c-5.694183-6.306335-12.99408-10.650574-19.764008-15.551392c-4.656097-3.370667-7.3591-7.999756-10.482819-12.321991
		c-7.189026-9.947296-13.80304-20.30896-20.732788-30.446106c-1.235016-1.806549-2.248199-3.550629-1.92337-5.809723
		C331.763245,461.536407,335.293884,462.245789,338.824524,462.955139z"/>
	<path fill="#C8148C" d="M51.812653,238.204285c10.908611,6.702057,20.480911,15.209473,30.716843,22.818848
		c20.349686,15.12793,40.511017,30.50943,60.711853,45.83667c1.219406,0.925171,2.428055,1.320465,3.877213,1.258118
		c-0.000092,2.117554-0.000183,4.235107-0.000275,6.352631c-6.848709-2.256775-11.679688-7.57959-17.247742-11.686737
		c-21.391022-15.778625-42.516891-31.916748-63.736435-47.927704c-5.44363-4.107422-10.868095-8.240265-16.300972-12.361176
		C49.944305,240.811646,50.624893,239.391022,51.812653,238.204285z"/>
	<path fill="#692C89" d="M501.901978,300.746521c7.305664,8.694214,12.780762,18.681763,19.571228,27.744873
		c1.480896,1.976501,2.748047,4.039368,5.043335,5.169067c-1.581238,5.223206-4.218811,9.943665-6.955627,14.616943
		c-2.22229,0.204224-2.936768-1.638123-3.956421-2.988831c-7.538666-9.986694-13.761963-20.886719-21.373322-30.826599
		c-0.929016-1.213287-2.126587-2.521301-0.822418-4.235168C496.239838,307.066711,499.070892,303.906616,501.901978,300.746521z"/>
	<path fill="#E60A8D" d="M38.147171,300.715942c0.087387-2.51239-0.764809-5.645874,3.629005-2.309875
		c35.814339,27.192139,71.745308,54.230652,107.653984,81.298462c5.30983,4.002563,10.693008,7.907837,16.032944,11.870605
		c1.567688,1.16333,3.1548,2.250214,5.219818,2.240723c1.933868,2.307922,3.963974,4.551941,4.965942,7.478607
		c-3.165421,0.590668-5.376709-1.37738-7.576004-3.041412c-28.377518-21.470337-56.706673-43.004578-85.066986-64.497681
		c-12.431824-9.42157-24.887264-18.812408-37.379051-28.154236C43.246861,303.82132,40.64608,302.336731,38.147171,300.715942z"/>
	<path fill="#95268C" d="M178.003311,221.331818c-7.352829-3.484039-13.174835-9.164948-19.639679-13.895599
		c-14.150452-10.354523-27.995316-21.126373-41.984749-31.701599c-2.402992-1.816559-4.617714-3.787292-6.263336-6.337006
		c0.613838-2.95993,2.237083-4.242371,5.274841-3.174042c22.244926,16.94635,44.48983,33.8927,66.734749,50.83902
		C180.751205,218.485687,179.377274,219.908752,178.003311,221.331818z"/>
	<path fill="#9D248D" d="M169.261993,231.880371c-6.709747-2.03894-11.387558-7.192047-16.757858-11.198944
		c-16.809235-12.541656-33.371132-25.414398-50.102829-38.060974c-1.739311-1.314667-3.512756-3.063507-6.102737-2.641479
		c-0.4888-2.477264,1.499481-3.426575,2.910347-4.737885c1.099823-0.573212,2.187981-1.249664,3.491631-0.562439
		c10.487976,8.179565,20.929016,16.420227,31.476486,24.522339c11.684784,8.975708,23.458649,17.835632,35.221695,26.708893
		c0.971848,0.733093,2.157639,1.182617,3.244019,1.763885C172.148651,229.584534,170.335663,230.435364,169.261993,231.880371z"/>
	<path fill="#B01E8D" d="M238.243973,86.819763c5.001923-2.83667,5.725204-8.562286,8.34967-12.915649
		c8.434448-13.99054,18.830856-26.227448,30.79924-37.219696c1.499481-1.377136,4.0466-2.294769,1.137878-4.661926
		c4.274963,0.22998,8.555939,0.41745,12.668121,1.795837c1.505493,3.050507-1.204742,4.043335-2.809326,5.337494
		c-14.118378,11.387451-25.764648,24.871429-34.993088,40.492004c-2.020828,3.420593-2.80304,7.675995-6.464783,10.054474
		c-0.763687,0.252991-1.545532,0.310638-2.341843,0.228821c-1.796341-0.360992-3.612228-0.647583-5.357056-1.245514
		C238.510284,88.273132,237.927216,87.783142,238.243973,86.819763z"/>
	<path fill="#572D89" d="M493.366699,209.521088c-0.518585,4.416199,0.904358,8.048981,3.625061,11.62323
		c4.253296,5.587616,8.009094,11.559509,11.860107,17.444244c1.14328,1.74704,2.003662,3.495514,4.423279,1.803833
		c-0.547852,7.892334-1.919647,15.635132-4.211761,23.210938c-2.137146,0.394409-3.306854-1.099365-4.261902-2.50351
		c-5.230682-7.69046-10.86795-15.099731-15.867218-22.949066C490.411713,228.607513,491.889221,219.064301,493.366699,209.521088z"
		/>
	<path fill="#7F2A8B" d="M170.471878,151.415649c1.781189,4.879486,6.693329,6.407349,10.276352,9.230194
		c11.68779,9.20816,23.696854,18.009064,35.609924,26.929779c1.074387,0.804504,1.735092,1.704407,1.767899,3.043182
		c-1.750305,1.535675-3.765305,2.596313-5.965286,3.324921c-7.979889-3.812225-14.048279-10.286255-21.181274-15.28891
		c-9.59848-6.731812-18.849197-13.962372-28.187332-21.060211c-1.954025-1.48526-4.981949-2.699921-2.909164-6.181549
		C163.413177,149.146088,166.94281,149.14386,170.471878,151.415649z"/>
	<path fill="#87288B" d="M145.058823,153.529419c18.555405,14.129944,37.110779,28.259949,55.666321,42.389709
		c1.418976,1.080536,2.930573,1.953125,4.759766,2.108032c-1.840469,1.777435-3.897644,3.238739-6.242737,4.28009
		c-8.563721-3.87262-15.235001-10.486023-22.697311-15.919281c-12.599854-9.173798-24.79805-18.900513-37.118835-28.454407
		c-1.220123-0.946136-2.452026-1.281097-3.896606-1.227692c-0.243668-1.966064,1.40625-1.961182,2.562256-2.475037
		C140.389328,153.771271,142.608902,152.490356,145.058823,153.529419z"/>
	<path fill="#BA1B8D" d="M397.833618,458.557281c-2.442719,0.014771-4.918091,0.280029-7.199951-0.938873
		c-7.591919-9.75412-13.859222-20.431305-21.157898-30.392914c-1.45517-1.986084-3.165436-3.781952-4.418182-5.916168
		c3.807892-1.492859,7.747284-2.487549,11.78479-3.110596c3.237396-1.147339,4.338501,1.45752,5.668213,3.378784
		c7.023438,10.147705,14.085785,20.270721,20.789062,30.634827c1.199188,1.854187,3.502869,3.930359,2.055145,6.071808
		c-1.16333,1.720734-3.952209,0.474731-6.007965,0.673035C398.818787,459.008148,398.311768,458.792297,397.833618,458.557281z"/>
	<path fill="#A6228E" d="M272.236755,31.723999c-6.133301-1.308746-9.842682,2.282104-13.331055,6.484467
		c-9.29834,11.201569-17.983932,22.795898-25.2314,35.493164c-1.895554,3.320953-1.535477,8.165649-6.001999,9.936432
		c-2.688446,1.500671-4.649567,0.125732-6.511276-1.639343c-0.458557-4.489594,2.033997-8.003265,3.999863-11.645813
		c6.262314-11.603546,13.454071-22.580719,22.203369-32.496155c1.012405-1.147369,2.085388-2.341278,2.619049-3.888794
		c-1.737717-1.631989-3.82077-0.515472-5.584686-1.076294c-0.783218-0.163147-1.474579-0.482208-1.964386-1.143585
		c2.684464-1.988251,5.81485-0.505829,8.676514-1.114868C258.127991,31.475983,265.266663,29.967743,272.236755,31.723999z"/>
	<path fill="#BA1B8C" d="M434.204651,499.958862c-2.8862-4.332977-6.22229-7.165894-11.724487-3.969086
		c-2.119476,1.231354-4.257324,0.677643-5.522003-1.360504c-6.696381-10.791901-14.792328-20.659332-20.957397-31.797882
		c2.767334-0.647858,5.514252-1.437775,8.407715-1.206177c3.421082-1.486053,5.19278,0.743042,6.80954,3.112335
		c4.915344,7.203339,10.041138,14.261444,14.807526,21.568359c1.519592,2.329559,3.040039,4.886475,6.579468,3.941467
		c1.209259-0.265808,2.420471-0.590271,3.63028-0.012085c0.352631-0.000153,0.705231-0.00061,1.057861-0.001282
		c2.97757-0.256805,5.052765,0.664673,5.258423,4.027222C439.388397,495.602478,437.553375,498.889404,434.204651,499.958862z"/>
	<path fill="#8C288C" d="M500.721313,438.317688c-2.404785,3.878052-5.331635,7.3349-8.530273,10.572449
		c-1.893646,1.422668-2.99585-0.09259-3.904968-1.268829c-6.887573-8.911102-12.707367-18.560303-19.076599-27.831207
		c-0.498688-0.72583-0.566681-1.651947-0.132996-2.516357c4.583679-2.102051,9.167358-4.204102,13.751038-6.306122
		C488.660828,420.170166,496.063782,428.345856,500.721313,438.317688z"/>
	<path fill="#C4168D" d="M374.578278,464.705933c6.768219-1.345856,10.466797,2.370178,13.803192,7.645752
		c5.235504,8.278442,11.094086,16.160461,16.493042,24.3396c1.418793,2.149414,2.916473,3.608856,5.488281,3.028748
		c6.4133-1.446655,9.542328,2.377655,12.101288,7.250519c-1.928894,1.531982-3.992981,2.804535-6.434601,3.352386
		c-3.710052,1.602295-5.414307-1.90033-8.013153-3.132477c-0.400055-0.242188-0.77298-0.523438-1.136688-0.815033
		c-1.198273-1.091034-2.47583-2.040222-4.141113-2.302216c-1.426331-0.363464-2.834534-0.7724-4.192017-1.349091
		c-4.263641-2.570374-6.147034-7.143433-8.930511-10.907562c-5.220215-7.059296-9.66629-14.66745-14.825897-21.785919
		c-1.087097-1.499786-2.501099-3.129211-1.025391-5.220093C374.007416,464.554077,374.278595,464.519196,374.578278,464.705933z"/>
	<path fill="#B51D8D" d="M246.692551,88.949005c4.737-7.162384,8.392853-14.940094,13.460342-21.966431
		c8.10907-11.243774,17.758514-20.841248,28.381683-29.570038c1.257904-1.0336,2.660645-1.72879,2.664307-3.594208
		c4.084076-0.067169,8.006134,0.777466,11.843079,2.104401c-6.673889,3.193909-12.22168,7.957977-17.691956,12.804626
		c-13.533386,11.990448-23.831055,26.464111-32.291824,42.331787c-0.610382,0.619171-1.363037,0.869141-2.218079,0.862823
		C249.132599,91.388062,246.850327,91.646301,246.692551,88.949005z"/>
	<path fill="#E30C8C" d="M317.646942,496.589539c3.911896-1.097534,1.065979-3.120789,0.308441-4.241608
		c-9.328949-13.802551-18.833038-27.486572-28.181458-41.276154c-1.230865-1.815643-3.157227-3.445374-2.839508-6.045105
		c4.242157,2.050873,8.484283,4.101685,12.72644,6.152527c8.731476,14.741425,19.084595,28.399628,28.508026,42.678833
		c0.385071,0.583527,0.890381,1.11731,1.143433,1.752472c0.595123,1.493805,3.044128,2.640259,1.463684,4.521454
		c-1.306274,1.55484-3.012421-0.008392-4.342163-0.502716C323.525513,498.548157,320.144043,498.816772,317.646942,496.589539z"/>
	<path fill="#B51D8D" d="M436.235291,490.235291c-1.058807,0.352966-2.117645,0.705872-3.176453,1.058838
		c-3.20163-1.621979-4.469147-4.887299-6.21048-7.647522c-5.056946-8.016113-10.672974-15.623383-16.339752-23.201691
		c-3.93631-2.559845-8.658356,0.154114-12.67337-1.887817c2.256165,0.000183,4.513977,0.000183,7.069366,0.000183
		c-0.570679-3.429108-2.648743-5.417419-4.176239-7.680603c-6.661011-9.868835-13.380981-19.697876-20.027527-29.576355
		c-0.99234-1.474854-1.718231-3.123383-3.858337-3.101532c2.870117-0.973755,5.740387-1.947449,8.610626-2.921143
		c13.578766,20.049255,27.156921,40.098938,40.736816,60.1474C429.535339,480.363892,432.886688,485.298645,436.235291,490.235291z"
		/>
	<path fill="#BE198D" d="M365.057587,421.309326c4.036987,0.569611,4.66806,4.443329,6.52359,6.992432
		c5.971039,8.203064,11.683594,16.594849,17.453918,24.94281c0.892303,1.290985,1.699738,2.685272,1.598602,4.37381
		c-5.872742-0.527161-11.535675-1.857727-16.880249-4.407623c-6.560699-8.212311-12.198273-17.064972-17.908325-25.865784
		c-0.758514-1.169128-1.410858-2.431824-1.316376-3.915466C357.926697,422.168182,361.453857,421.548553,365.057587,421.309326z"/>
	<path fill="#C3178D" d="M446.847839,215.8479c4.521454-8.302673,10.607819-15.602081,14.539948-24.352631
		c5.178802-11.524719,7.115265-23.775574,9.804504-35.892273c3.085205,5.975922,5.197968,12.222992,5.305054,19.029175
		c-0.127472,6.986542-3.64267,12.930573-6.116058,19.150482c-1.862885,4.68454-4.237518,9.19278-6.648926,13.648621
		C458.805634,211.644012,453.094513,214.283142,446.847839,215.8479z"/>
	<path fill="#6E2B8A" d="M493.408752,310.226807c6.823547,10.174438,13.618225,20.368469,20.490601,30.509857
		c1.761169,2.598969,3.767761,5.031677,5.66156,7.540741c-1.341492,3.043762-2.891052,5.964081-5.054749,8.52005
		c-4.320068-3.028534-6.255341-7.940765-9.122131-12.041229c-6.691986-9.571686-13.626556-19.008545-19.390503-29.20578
		C489.459412,315.160583,490.657257,311.611633,493.408752,310.226807z"/>
	<path fill="#7C2A8B" d="M477.194458,355.565338c2.723907-0.761139,4.079651-3.034363,5.629059-5.093475
		c5.220978,7.620056,10.464172,15.225006,15.636475,22.87793c0.697021,1.031342,1.249084,2.104736,2.475586,2.587708
		c-2.569305,4.026672-5.743347,7.527222-9.302277,10.692993c-1.922607,0.74527-3.052307-0.562103-3.901276-1.813995
		c-4.598938-6.781769-9.539093-13.329559-13.915009-20.262482c-0.663635-1.051331-1.047394-2.214478-0.514435-3.477112
		C474.424194,359.115662,476.874756,358.092834,477.194458,355.565338z"/>
	<path fill="#8C288C" d="M446.772308,383.186279c3.568787-2.683533,7.137604-5.367004,10.706421-8.050476
		c0.684448,0.152252,1.44223,0.285583,1.8638,0.85614c5.684875,7.694885,11.093079,15.581573,16.241211,23.645325
		c0.391235,0.612854,0.337952,1.324402-0.032593,1.978394c-3.172607,3.360565-6.910248,5.951935-10.992371,8.074371
		c-0.997009,0.186005-1.690338-0.355988-2.20639-1.068024c-5.213959-7.194244-10.364441-14.433563-15.074158-21.973206
		C446.622406,385.598877,446.192871,384.448944,446.772308,383.186279z"/>
	<path fill="#8C288C" d="M424.593872,351.545166c3.509216-3.589294,7.018433-7.178589,10.527679-10.767883
		c3.766754,2.824554,5.737244,7.04834,8.27655,10.802155c3.63797,5.37796,7.323181,10.718781,11.141968,15.968689
		c-4.980743,2.704132-10.281647,4.452728-15.87796,5.319489c-0.165771,0.054443-0.420654,0.207336-0.484619,0.149414
		c-6.331787-5.735107-10.925629-12.665955-14.060577-20.583252C424.019104,352.186707,424.361755,351.817749,424.593872,351.545166z
		"/>
	<path fill="#612C89" d="M480.585175,265.723083c1.776733-5.331879,3.553497-10.663788,5.330231-15.995667
		c3.177765,0.127838,4.280884,2.760895,5.779816,4.858948c4.697296,6.574982,8.504578,13.791992,14.197906,19.647797
		c-1.604401,5.499542-3.677094,10.811249-6.369904,15.874023c-1.734863,1.212067-2.675385-0.182404-3.398834-1.267822
		C490.974792,281.114197,485.342346,273.711975,480.585175,265.723083z"/>
	<path fill="#E30C8C" d="M299.647064,489.176483c5.237946,3.40564,11.456146,4.57074,16.941162,7.411743
		c0.205902,2.624481,2.228119,3.832367,4.048676,5.203186c11.891754,8.954102,23.776093,17.918182,35.681732,26.85379
		c0.912811,0.685059,1.460693,1.485657,1.561798,2.606323c-2.80072,0.583008-5.513031,1.731812-8.468658,1.323975
		c-5.220856-6.707458-12.626984-10.796997-19.186066-15.879517c-11.615662-9.000854-23.40567-17.776947-35.151062-26.609436
		c-1.06842-0.803375-1.754089-1.684631-1.780518-3.029022C295.411774,487.763824,297.529419,488.470154,299.647064,489.176483z"/>
	<path fill="#99258C" d="M447.841949,423.78302c2.821991-0.711243,5.643982-1.422516,8.465942-2.133789
		c6.235016,11.988464,15.045532,22.288422,22.095642,33.739471c1.278412,2.076477,3.588409,1.942108,5.297913,3.042267
		c-0.91629,1.833466-2.302429,3.223145-4.041962,4.278992c-5.570557,4.114166-6.346375,4.137085-10.39502-1.494598
		c-7.366241-10.24649-14.379272-20.74295-21.384583-31.238739C446.665436,428.156982,444.427826,425.850403,447.841949,423.78302z"
		/>
	<path fill="#762A8A" d="M228.981567,185.444244c-8.979309-8.384552-19.405365-14.89978-29.029617-22.451569
		c-2.89325-2.270233-5.899643-4.396057-8.847626-6.596863c-1.057907-0.789764-2.037201-1.615936-0.505737-2.87207
		c0.610168-0.625397,1.348663-1.005127,2.205307-1.163025c2.837845-0.328033,5.474884,0.668335,8.178055,1.23941
		c3.036865,1.005432,6.392471,1.209106,8.938217,3.479767c5.47966,5.988281,12.411377,10.190186,18.728195,15.147675
		c2.340714,1.837006,4.727036,3.619629,6.953918,5.590729c1.250259,1.106659,3.007004,2.161591,1.576767,4.306824
		C234.613907,183.644836,231.87941,184.746246,228.981567,185.444244z"/>
	<path fill="#9D248D" d="M447.841949,423.78302c-1.427551,1.771301-0.469238,3.336975,0.526733,4.792145
		c7.125122,10.410248,14.479645,20.670227,21.344482,31.248444c2.763763,4.25882,5.446503,5.967804,9.94632,2.886353
		c-1.081177,1.742035-2.494659,3.151733-4.234894,4.234711c-0.528717,0.017456-1.232758-0.181152-1.560211,0.084473
		c-5.847961,4.743927-8.419098,0.379364-11.24234-3.855957c-7.21524-10.823914-14.526459-21.584015-21.84201-32.340607
		c-1.098999-1.615967-2.251709-3.158875-2.427094-5.185516c0.430603-0.973541,1.00647-1.654266,2.199432-1.091339
		C442.982239,424.298157,445.412109,424.040588,447.841949,423.78302z"/>
	<path fill="#C8148C" d="M399.176483,501.882355c1.411774,0.352905,2.823517,0.705872,4.235291,1.058807
		c1.465973,0.986542,2.731262,2.240631,4.235291,3.176483c1.805267,1.056732,3.108521,2.726257,4.830627,3.911072
		c1.329315,0.91452,0.440033,1.701508-0.570221,2.2565c-1.007019,0.484497-1.765411,1.561462-3.087341,1.295471
		c-3.1427-2.242615-6.281219-4.491119-9.430878-6.723907c-0.851318-0.603577-1.724792-1.643524-2.607239-1.664185
		c-10.65979-0.249054-14.207489-8.965851-19.134308-15.971069c-4.448059-6.324402-8.681519-12.799286-13.068054-19.167511
		c-1.108734-1.609619-2.260864-3.151855-2.461578-5.172638c2.823395-0.000488,5.64682-0.000977,8.470184-0.001465
		c6.130524,7.038269,10.77179,15.126801,15.991089,22.803192c2.661835,3.914886,5.727844,7.549561,8.061523,11.691559
		C395.619202,501.111115,396.779236,502.650696,399.176483,501.882355z"/>
	<path fill="#532D87" d="M525.158447,265.715851c4.040649-8.329163,8.081299-16.658325,12.689148-26.156555
		c3.286926,15.771332,3.924988,30.445892,1.932861,45.259308c-1.53186,1.142761-2.742371,0.19873-3.645142-0.825867
		c-4.2901-4.869385-7.709412-10.373169-11.190308-15.822083C524.484619,267.450043,524.541626,266.487793,525.158447,265.715851z"/>
	<path fill="#86298B" d="M454.54007,367.548126c-0.759125-0.376617-1.784729-0.554169-2.237213-1.159821
		c-6.159058-8.244568-12.07486-16.65802-17.181274-25.610992c2.445618-2.861176,4.891235-5.722321,7.336823-8.583466
		c4.795563,3.558533,6.982178,9.12561,10.386292,13.738068c4.039703,5.473602,8.389709,10.826508,10.962402,17.262543
		C460.975952,365.19458,457.946838,366.773254,454.54007,367.548126z"/>
	<path fill="#572D89" d="M525.158447,265.715881c4.301941,6.80545,7.678223,14.319458,14.622009,19.102722
		c-0.460876,6.441345-1.607605,12.766388-3.222961,19.011963c-1.895325,0.375366-2.97644-0.906281-3.950806-2.122314
		c-5.412476-6.754913-9.872437-14.1745-14.727783-21.318237c-0.384644-0.565918-0.550293-1.292145-0.145935-1.987305
		C520.20813,274.173798,522.683289,269.944824,525.158447,265.715881z"/>
	<path fill="#81298B" d="M463.807098,363.194458c-7.6987-9.932373-14.858276-20.236084-21.348663-31.00061
		c2.139679-2.786133,4.279388-5.572327,6.419098-8.358521c0.168304,3.265259,2.708862,5.194794,4.341095,7.619385
		c5.264526,7.820221,10.61319,15.58374,15.890198,23.39563c0.903717,1.337769,1.884918,2.517639,3.399109,3.16394
		C469.989716,360.382751,467.003571,361.96521,463.807098,363.194458z"/>
	<path fill="#86298B" d="M475.551147,401.615662c-6.024139-8.826599-12.048279-17.653259-18.072418-26.479858
		c3.133728-2.637299,6.267487-5.274597,9.401245-7.911926c6.154694,8.698242,12.741608,17.116943,17.346588,26.817657
		C481.623505,396.896973,478.888794,399.601624,475.551147,401.615662z"/>
	<path fill="#87298B" d="M500.721313,438.317688c-6.402863-8.829956-13.849426-16.977081-17.893799-27.350037
		c3.177734-1.725525,6.355408-3.450989,9.533112-5.176514c5.635498,7.34729,11.436249,14.582886,15.53302,22.970703
		C505.865662,432.219421,503.535797,435.450409,500.721313,438.317688z"/>
	<path fill="#5D2D89" d="M517.73291,278.40271c4.961426,7.10611,9.881714,14.241577,14.916748,21.295105
		c1.091125,1.528564,2.59436,2.762939,3.907837,4.132751c-1.068542,3.898926-2.137085,7.797791-3.205627,11.696686
		c-0.906189-0.477905-2.122742-0.726471-2.671204-1.468689c-6.524536-8.828613-12.794312-17.834259-18.302673-27.345703
		C514.162964,283.94281,515.947937,281.172791,517.73291,278.40271z"/>
	<path fill="#732B89" d="M237.179047,182.125122c-2.289307-5.025208-7.403885-7.012604-11.271942-10.30542
		c-4.618729-3.931824-9.618637-7.419189-14.498108-11.038849c-1.067688-0.791992-1.733521-1.680206-1.761475-3.012634
		c1.574127-0.799347,3.056473-0.087128,4.563934,0.261566c4.31311,1.722351,8.881165,2.630219,13.271362,4.109009
		c2.941727,1.463989,6.117126,2.393311,9.044067,3.89328c2.004257,0.993286,4.180832,1.580963,6.182297,2.584442
		c3.079819,2.024536,7.076355,2.634155,9.296219,5.991882c1.055023,0.67395,2.110062,1.3479,3.165619,2.021759
		C249.174057,178.461761,243.176544,180.293427,237.179047,182.125122z"/>
	<path fill="#95268D" d="M483.701447,458.430969c-2.542389,1.076904-4.417786,0.762177-6.117554-1.826233
		c-6.696686-10.197693-13.586517-20.26886-20.438568-30.363892c-0.982025-1.446899-2.360657-2.728516-0.837433-4.591583
		c2.132812-0.688263,4.265594-1.376526,6.398376-2.064789c6.092224,8.085175,11.674561,16.524323,17.28183,24.945007
		c2.226227,3.343201,4.465668,6.670715,7.107635,9.706757C486.610809,456.157593,485.325928,457.431702,483.701447,458.430969z"/>
	<path fill="#692C89" d="M473.328766,282.779602c1.733368-3.946167,3.466766-7.892365,5.200165-11.838562
		c3.64325,2.160431,5.319794,5.963257,7.597504,9.234589c3.513641,5.046295,6.843781,10.220306,10.406586,15.234741
		c-0.804993,4.050385-3.259521,7.250366-5.456268,10.583221c-1.591766,1.183167-2.71051,0.116943-3.531555-0.980408
		c-5.019135-6.708252-9.920227-13.50293-14.196838-20.720978C473.08017,283.839539,473.136169,283.287109,473.328766,282.779602z"/>
	<path fill="#5D2D89" d="M505.893127,274.234161c-3.723297-0.015961-4.507721-3.391815-6.23526-5.590729
		c-4.816193-6.130219-7.955231-13.483521-13.742462-18.916016c1.006317-3.858856,2.012634-7.717743,3.018921-11.57663
		c6.257233,4.70575,9.090759,12.070068,13.874634,17.925995c2.064301,2.526917,3.327026,5.710938,6.254456,7.52655
		C508.006653,267.146942,506.94989,270.690552,505.893127,274.234161z"/>
	<path fill="#C4178D" d="M354.528748,423.429504c5.92807,8.626678,11.886505,17.23291,17.746674,25.905457
		c0.753754,1.115479,0.997833,2.575439,1.478027,3.875793c-6.534271-1.618591-12.511566-4.472839-18.111664-8.16394
		c-3.010529-4.838226-6.292358-9.499786-9.340454-14.311768c-1.148163-1.8125-2.967712-3.632446-1.124573-6.056732
		C348.240814,423.863007,351.342926,423.332855,354.528748,423.429504z"/>
	<path fill="#92278D" d="M487.095734,454.236237c-1.566467,0.010406-2.70282-0.82428-3.520233-2.023224
		c-6.823303-10.008209-13.62973-20.028046-20.375214-30.088684c-0.442657-0.660217-0.341949-1.684784-0.494019-2.539886
		c2.123413-0.770233,4.246796-1.540497,6.370209-2.310699c6.825653,10.066101,13.654175,20.130341,20.472351,30.201599
		c0.644073,0.951324,1.526459,1.382172,2.642212,1.414795C491.093994,451.245361,489.11731,452.762207,487.095734,454.236237z"/>
	<path fill="#81298B" d="M484.226562,394.041534c-6.481567-7.513031-10.922546-16.458099-16.983124-24.271912
		c-0.456451-0.588531-0.25766-1.685242-0.363525-2.545746c2.140869-2.049011,4.281769-4.098022,6.422668-6.146973
		c5.617249,8.87146,10.979309,17.925964,18.330658,25.553528C489.47934,389.415588,486.997864,391.873352,484.226562,394.041534z"/>
	<path fill="#7C2A8B" d="M500.646423,400.880981c4.266296-2.768463,8.532593-5.536926,12.798889-8.305359
		c3.922607,2.959839,4.846924,8.566895,9.560547,10.828308c-2.23761,5.678192-5.458313,10.811096-8.805603,15.87381
		c-1.641907,1.150848-2.716736-0.037567-3.499176-1.1091c-3.606293-4.938599-7.080017-9.973511-10.115662-15.292236
		C500.218414,402.233337,500.29538,401.536316,500.646423,400.880981z"/>
	<path fill="#6E2C8A" d="M473.328766,282.779602c4.69165,6.646606,9.389587,13.288727,14.069794,19.943359
		c0.974884,1.386108,1.50354,3.2453,3.678223,3.27063c-1.359985,3.095795-3.292572,5.82843-5.371155,8.468384
		c-0.338379-0.073456-0.837799-0.028381-0.991913-0.23761c-5.492676-7.457886-11.582367-14.512085-15.628632-22.954193
		C470.499634,288.440002,471.914215,285.609833,473.328766,282.779602z"/>
	<path fill="#95268D" d="M459.80011,413.076508c-2.414307,2.564209-5.762939,3.585236-8.70813,5.272552
		c-6.843903-7.246399-11.54895-16.023438-17.221161-24.107849c-0.531586-0.757629-0.409332-1.655029,0.277924-2.379791
		c2.410889-1.59317,4.821716-3.18631,7.232605-4.779449c5.324188,5.615631,8.732819,12.609894,13.411316,18.701599
		C456.572601,408.101196,458.842773,410.164856,459.80011,413.076508z"/>
	<path fill="#99258D" d="M434.148743,391.86142c4.352997,6.622131,8.675385,13.264679,13.07663,19.854614
		c1.427948,2.138031,3.42453,3.92572,3.866608,6.632996c-1.774567,1.544586-3.760559,2.68924-6.075287,3.212128
		c-1.86557,0.574249-2.970459-0.633087-3.933289-1.843964c-5.310791-6.678986-9.7211-13.985138-14.514618-21.024597
		c-0.517273-0.759613-0.522278-1.634613,0.146362-2.395172C429.193024,394.818787,431.670898,393.340118,434.148743,391.86142z"/>
	<path fill="#82298B" d="M500.646454,400.880981c3.505249,5.269409,7.047363,10.515015,10.488129,15.826294
		c0.79129,1.221436,1.417358,2.453705,3.065735,2.570465c-2.102295,3.161377-4.204468,6.322723-6.306671,9.4841
		c-5.648224-7.338684-11.69574-14.40741-15.53302-22.970703C495.122559,404.154449,497.884491,402.5177,500.646454,400.880981z"/>
	<path fill="#97268D" d="M428.975616,374.909241c-6.297302,1.694763-12.720886,2.087708-19.204407,1.863129
		c-1.854218-2.590363-4.530823-4.760925-4.296356-8.417358c4.242615-3.524902,8.485199-7.049805,12.727814-10.574707
		C423.11972,362.655945,427.169006,368.077332,428.975616,374.909241z"/>
	<path fill="#9D248D" d="M426.715149,396.297424c5.906586,8.561584,10.498016,18.075867,18.301392,25.263611
		c-1.03064,1.680054-3.563446,1.120789-4.464172,2.994629c-0.733154,0.3638-1.466278,0.7276-2.199432,1.0914
		c-7.535309-7.49646-12.521332-16.79187-18.109009-25.66272C422.401001,398.755341,424.558044,397.526398,426.715149,396.297424z"/>
	<path fill="#762C8A" d="M523.005859,403.403931c-1.074707,0.404663-2.184204,1.478455-3.15741-0.15332
		c-2.125305-3.56369-5.257385-6.523621-6.403076-10.674927c6.492371-4.92218,12.98468-9.84433,19.477051-14.766479
		C530.801025,387.095337,527.654175,395.559052,523.005859,403.403931z"/>
	<path fill="#91278D" d="M459.80011,413.076508c-7.848541-7.453583-13.410858-16.5271-18.418701-25.99408
		c1.796936-1.299042,3.593903-2.597626,5.3909-3.896149c5.20871,9.317841,11.831116,17.687012,17.78653,26.503784
		C463.444061,411.481445,461.652863,412.322266,459.80011,413.076508z"/>
	<path fill="#92288D" d="M428.975616,374.909241c-3.591003-5.709595-7.181976-11.41925-10.772949-17.128937
		c2.130402-2.0784,4.260773-4.156738,6.391205-6.235138c3.674194,7.776947,8.904816,14.526978,14.067841,21.322205
		C435.581238,374.250183,432.3638,374.984833,428.975616,374.909241z"/>
	<path fill="#C9168D" d="M345.176758,424.678314c0.907745,5.381653,5.110168,8.893127,7.586914,13.383514
		c1.221222,2.214111,3.55307,3.985138,2.878113,6.984863c-9.438477-4.613434-17.283417-11.327271-25.842407-19.349091
		C335.67926,425.307831,340.428009,424.993073,345.176758,424.678314z"/>
	<path fill="#662D89" d="M496.53302,295.41037c-1.099274-0.064819-2.047363-0.424469-2.684296-1.384186
		c-5.106903-7.694885-10.213318-15.390015-15.319824-23.085114c0.155853-1.948029,0.920166-3.65625,2.056274-5.217987
		c6.46048,5.526855,9.818329,13.361145,14.847809,19.951782c1.222076,1.601379,1.73407,3.873749,4.09024,4.433319
		C499.096405,292.19696,497.803162,293.79718,496.53302,295.41037z"/>
	<path fill="#B61D8D" d="M410.508606,460.444916c1.249695,0.162506,2.362488,0.522217,3.136047,1.653168
		c6.59903,9.647308,13.614075,19.017426,19.414185,29.196045c-3.706573,2.379608-5.505737-0.389252-7.206299-2.840393
		c-5.397919-7.780609-10.739258-15.602264-15.971497-23.494873c-1.373749-2.072296-2.825653-3.565247-5.472443-3.333618
		C406.287994,460.436493,408.419128,460.548492,410.508606,460.444916z"/>
	<path fill="#C01B8E" d="M463.732361,207.431274c0.104553-6.796112,5.182343-11.639496,6.996552-17.809845
		c1.505096-5.119141,3.814972-10.001648,5.768372-14.989136C478.403687,187.963104,474.797119,199.148499,463.732361,207.431274z"/>
	<path fill="#C8168C" d="M399.176483,501.882355c-2.512482,1.549622-3.577362,1.487396-5.073914-0.705322
		c-7.463776-10.935333-14.888916-21.897278-22.263214-32.893005c-0.654266-0.975616-0.845093-2.262024-1.251129-3.404114
		c1.058868-0.023132,2.117645-0.046234,3.176483-0.069366c0.162781,3.088135,2.553101,4.898926,4.114471,7.187378
		c5.93222,8.694611,11.885681,17.375092,17.754486,26.112366C396.627747,499.59021,397.492462,501.093719,399.176483,501.882355z"/>
	<path fill="#9F288F" d="M405.474854,368.355011c1.328461,2.858704,4.409027,4.82309,4.296326,8.417358
		c-4.513855,0.308685-8.979309,0.03064-13.812347-1.153351C398.823151,372.485657,402.327728,370.642212,405.474854,368.355011z"/>
	<path fill="#B61D8D" d="M442.551605,494.261261c-1.154999-2.123077-3.214874-3.064545-5.258453-4.027252
		c6.176605-4.280304,7.142731-4.255676,10.70639,0.273102C446.183594,491.758545,444.367615,493.009888,442.551605,494.261261z"/>
	<path fill="#C8168C" d="M411.907471,512.285217c0.62793-3.470581-3.829163-3.428619-4.260406-6.167572
		c3.320526,0.3526,4.831299,4.312531,8.382446,4.205322C414.860321,511.407349,413.562622,512.22168,411.907471,512.285217z"/>
	<path fill="#63388F" d="M38.277924,352.544128c0.316032-0.715118,0.632065-1.430237,0.948395-2.145599
		c1.55637,2.024872,0.905785,4.392609,1.031616,6.64151C39.59819,355.542542,38.938057,354.043304,38.277924,352.544128z"/>
	<path fill="#EB108E" d="M200.341217,379.103058c1.545288,1.963806,0.596863,4.239075,0.795654,6.371246
		C200.005371,383.458862,200.266022,381.269348,200.341217,379.103058z"/>
	<path fill="#D2128C" d="M147.944687,328.166687c-1.433609-2.029175-0.541519-4.310425-0.70195-6.478333
		C148.111816,323.778564,148.05899,325.969299,147.944687,328.166687z"/>
	<path fill="#7B2A8A" d="M138.703308,155.644196c-1.163727,0.03772-2.41333-0.181244-3.173889,1.061676
		c-3.17691,1.057922-6.353821,2.115875-9.530708,3.173798c-2.361633-2.546051-2.583572-5.738647-2.389122-8.904053
		c1.19651-19.477142,2.676582-38.908508,7.247925-57.985352c2.216141-9.24823,5.487991-18.171448,7.785248-27.381805
		c5.288208-3.806274,10.802338-7.212799,16.914658-9.561066c3.647629,1.192719,2.067184,3.844513,1.40007,5.895477
		c-2.121994,6.523621-4.703705,12.880463-6.694611,19.467682c-5.88736,19.479248-9.449646,39.292999-10.233521,59.661865
		C139.843552,145.900543,139.96051,150.866028,138.703308,155.644196z"/>
	<path fill="#762A8A" d="M138.642761,65.608459c1.800873,1.456177,0.959106,3.098724,0.396103,4.777618
		c-6.296738,18.777344-10.601822,37.951508-12.086708,57.760132c-0.792847,10.57666-2.337547,21.102142-0.95343,31.733521
		c-0.352478,0.354401-0.704933,0.708862-1.057396,1.063354c-2.819534,1.066437-5.639084,2.132843-8.458626,3.199219
		c-2.772865-1.893433-2.525032-4.855469-2.59967-7.635132c-0.455704-16.970154,1.252007-33.766907,4.228447-50.449219
		c1.856911-10.407593,4.325645-20.686829,6.675125-30.990143C128.872467,71.134155,133.75502,68.367493,138.642761,65.608459z"/>
	<path fill="#81298B" d="M138.703308,155.644226c-2.675659-8.198303-0.096069-16.45575,0.356644-24.559143
		c0.768906-13.763214,3.379288-27.425781,7.019089-40.810089c2.675934-9.839844,5.806976-19.526337,9.631805-28.981628
		c0.727905-1.7995,1.856735-3.551086-0.152908-5.245392c4.976059-3.212494,10.233566-5.821869,15.953659-7.439148
		c1.875519,2.271149,0.337479,4.313019-0.499481,6.341278c-3.871979,9.382996-8.127792,18.623688-10.372574,28.596283
		c-0.681015,1.461945-1.781433,2.612793-2.943283,3.67395c-5.435486,4.964447-8.215683,10.850555-6.607407,18.349304
		c0.261398,1.218903,0.271072,2.455597-0.719604,3.447083c-3.64122,6.139587-3.535446,13.214569-4.001648,19.863525
		c-0.573959,8.18576-2.063156,16.378998-1.308777,24.64917C142.940323,154.234344,140.821808,154.93927,138.703308,155.644226z"/>
	<path fill="#612C88" d="M78.368164,198.004486c-0.727554,0.670197-1.455093,1.340393-2.182648,2.010559
		c-2.753578-1.081207-3.27861-3.562531-3.542664-6.026367c-1.818726-16.971436-4.127075-33.919373-2.398354-51.066101
		c0.458626-4.549072-0.157951-9.171478,0.780388-13.701721c3.63446-5.755432,7.773254-11.115784,12.52832-15.993378
		c4.214607,1.640167,2.646576,5.243774,2.432587,8.065063c-0.823708,10.860046-1.866356,21.688721-1.826111,32.610962
		c0.036987,10.037598,0.885109,19.99762,1.868896,29.960144c0.15757,1.595703,0.272675,3.145996-0.20182,4.694244
		c-0.35656,0.680878-0.713112,1.361755-1.069176,2.042755C82.628113,193.068634,80.498138,195.53656,78.368164,198.004486z"/>
	<path fill="#692C89" d="M99.564201,175.830017c-1.088165,1.383118-2.176338,2.766235-3.265076,4.149139
		c-1.729492,1.090881-3.458427,2.181976-5.187355,3.273041c-1.932709-0.780365-2.370102-2.493958-2.553612-4.280304
		c-1.550095-15.089478-1.756821-30.194275-0.660652-45.329956c0.699493-9.658478,1.802826-19.265961,3.095612-28.856873
		c3.624031-4.155426,7.402969-8.154022,11.73671-11.59082c3.717972,1.522491,2.314949,4.606567,1.968498,7.139954
		c-1.333504,9.751434-2.84774,19.463959-3.799721,29.280426c-1.312813,13.537567-0.539833,27.056885-0.689499,40.583252
		C100.188034,172.103149,100.807343,174.069122,99.564201,175.830017z"/>
	<path fill="#722B89" d="M124.786606,75.06781c1.593987,1.134613,1.464699,2.825409,1.010925,4.300323
		c-4.529404,14.722321-7.157997,29.86972-8.812988,45.091248c-1.428337,13.137024-3.20739,26.425446-0.501984,39.682617
		c-0.3638,0.694153-0.727745,1.388-1.091927,2.081726c-2.23967,0.258453-3.707664,1.79892-5.27507,3.174042
		c-0.707558,0.340363-1.415108,0.680847-2.122673,1.021362c-2.01329-1.566376-2.412186-3.858673-2.486938-6.143066
		c-0.895927-27.376282,1.806419-54.37204,8.705467-80.912903C117.369789,80.130554,120.707115,77.126129,124.786606,75.06781z"/>
	<path fill="#6E2B89" d="M114.211418,83.363159c1.370964,6.401611-1.782677,12.180389-2.560646,18.290009
		c-1.297592,10.190369-3.025909,20.304047-3.820587,30.584015c-0.59491,7.69577-0.858322,15.358612-0.886131,23.05304
		c-0.018326,5.067902-0.28598,10.155182,1.048935,15.129517c-1.709938,1.486786-4.113953,2.111877-5.292404,4.259186
		c-1.045761,0.383057-2.091484,0.766357-3.136795,1.15036c-0.924614-2.864838-1.074577-5.799896-1.133957-8.804047
		c-0.457222-23.136414,0.38343-46.162109,5.176949-68.905701c0.343102-1.62793,0.727257-3.522949-0.877037-4.925385
		C106.300774,89.61795,109.814568,85.974915,114.211418,83.363159z"/>
	<path fill="#5C2D88" d="M71.024887,129.220856c2.043732,5.064697,1.512833,10.477386,0.660416,15.451111
		c-1.929581,11.258789,1.084404,22.268829,0.682846,33.422913c-0.172653,4.795837,1.361603,9.629852,1.645256,14.474365
		c0.160957,2.748901,0.909294,5.122406,2.172585,7.446686c-1.015892,1.447205-2.031303,2.895294-3.045914,4.343445
		c-1.057922,1.412018-2.116631,2.823975-3.174561,4.236023c-0.40464,0.280334-0.810074,0.560577-1.2155,0.84079
		c-3.426941-2.091583-2.95977-5.778107-3.479378-8.945282c-3.007744-18.332825-3.648338-36.824646-3.434597-55.363739
		c0.008171-0.708801-0.031151-1.409088-0.159142-2.105164C64.407166,138.16037,67.40506,133.47998,71.024887,129.220856z"/>
	<path fill="#582D88" d="M61.676899,143.022003c2.537418,1.470337,1.87709,3.962799,1.824409,6.146149
		c-0.464371,19.24585,1.028126,38.340607,4.294315,57.302643c0.174713,1.014313,0.630692,1.980164,0.955063,2.96698
		c-2.2658,1.625275-2.338547,4.606598-4.05925,6.569336c-0.699112,0.728546-1.399113,1.45697-2.09911,2.185425
		c-3.158817-0.172089-3.299095-2.765839-3.69482-4.901093c-2.796356-15.088409-4.668831-30.294159-5.382229-45.628143
		c-0.139557-2.999603-0.506165-5.967194-0.782177-8.948334C55.188179,153.184082,58.046448,147.882996,61.676899,143.022003z"/>
	<path fill="#552D88" d="M52.733101,158.714966c1.724865,1.241425,2.306843,3.020081,2.314705,5.038544
		c0.065445,16.808289,2.887375,33.32132,5.299866,49.880066c0.262402,1.801086,0.725883,3.415985,2.2439,4.55835
		c-1.507576,2.780487-3.0159,5.560333-4.525467,8.339874c-0.668129,0.676117-1.33503,1.352631-2.002483,2.028107
		c-4.265045-9.222229-4.610832-19.302216-6.236137-29.082428c-1.172447-7.055176-2.201851-14.161133-2.214813-21.358643
		c-0.003284-1.821625-0.698788-3.425995-2.230633-4.560822C47.503384,168.447296,49.646828,163.347656,52.733101,158.714966z"/>
	<path fill="#652C88" d="M90.993118,104.785065c3.025795,5.488037,0.068977,10.956818-0.396774,16.318207
		c-1.470619,16.928741-2.771034,33.813843-0.702599,50.766144c0.462379,3.78952-0.854546,7.769104,1.217415,11.382019
		c-0.015656,0.332245-0.018608,0.663879-0.007797,0.995758c-1.759003,1.436401-3.518463,2.872711-5.277267,4.309875
		c-3.504105-6.315948-2.13559-13.427094-2.7854-20.10376c-1.032349-10.606934-0.560211-21.352814-0.023338-32.067535
		c0.385216-7.688293,3.262405-15.390411,0.53611-23.15802C85.954254,110.343781,87.907455,107.06543,90.993118,104.785065z"/>
	<path fill="#87288B" d="M159.870682,83.510223c0.120758-7.922821,4.356888-14.573944,6.741196-21.796844
		c1.462585-4.430664,4.495316-8.275421,4.899765-13.103821c4.257706-2.574707,8.908279-4.121613,13.71965-5.248169
		c2.303955,2.112946,2.478806,2.19751,0.992493,5.269714c-2.518616,5.206085-4.814865,10.51059-7.268066,15.744019
		c-1.788605,3.815674-3.381943,7.695679-4.366745,11.806396C170.240097,79.734894,165.90683,83.334656,159.870682,83.510223z"/>
	<path fill="#99258C" d="M222.349564,33.928833c3.000824-1.689148,6.292725-0.945801,9.473206-1.133698
		c3.162308,0.674286,3.45813,1.124054,1.662628,4.060303c-3.009827,4.922119-6.900345,9.232941-9.866257,14.217255
		c-4.55925,7.662079-9.540924,15.077026-12.781174,23.457611c-0.501297,1.296539-1.176956,2.551758-2.451294,3.325012
		c-3.99408,0.504395-7.707382,0.051239-10.610748-3.134155c5.698364-9.006073,9.628296-18.997284,15.548828-27.894165
		C216.234711,42.454132,218.929443,37.941132,222.349564,33.928833z"/>
	<path fill="#8D288C" d="M173.660797,76.286743c0.483994-7.911987,5.509201-14.12326,8.018524-21.281403
		c0.914398-2.608459,2.445847-4.998749,3.66922-7.501556c0.677933-1.386871,1.701172-2.812286-0.116837-4.141907
		c4.342407-2.193176,8.85498-3.832642,13.751648-4.220459c3.450928,0.676666,3.722168,1.282623,1.866882,4.993713
		c-3.421463,6.843964-7.649506,13.262268-10.455902,20.444366c-1.010574,2.586212-1.875656,5.221069-2.893036,7.804718
		C183.214645,74.839935,178.916565,77.264496,173.660797,76.286743z"/>
	<path fill="#9D248D" d="M208.573441,77.374207c4.673767-14.088196,13.067337-26.068329,21.539398-38.003693
		c1.107788-1.560608,2.382492-3.028198,3.293564-4.695343c0.808075-1.478607-0.558411-1.655823-1.583054-1.87973
		c3.377121-1.968445,7.077866-0.661224,10.611252-1.04718c0.71283,0.016449,1.42601,0.033112,2.139206,0.049744
		c1.434326,1.998932-0.136627,3.314453-1.198456,4.575714c-10.219849,12.139008-18.659668,25.40387-25.405975,39.760132
		c-0.742554,1.5802-1.562393,3.163788-3.295822,3.958527C212.082626,80.437561,209.590027,80.556824,208.573441,77.374207z"/>
	<path fill="#95268C" d="M222.349564,33.928833c-1.333801,5.986053-5.955673,10.093628-8.881012,15.165375
		c-4.207184,7.294159-8.293777,14.628357-11.840668,22.250458c-0.83934,1.80368-1.55928,3.059601-3.707062,2.809784
		c-2.925568,1.578339-5.376862,0.766052-7.540833-1.491577c6.117096-9.80484,10.289642-20.688934,16.767242-30.303009
		c1.469208-2.180634,2.618286-4.582367,4.61116-6.381653C215.105133,34.345947,218.862854,34.837769,222.349564,33.928833z"/>
	<path fill="#90278C" d="M211.758392,35.97821c-1.379318,5.398407-5.123047,9.537476-7.785492,14.230988
		c-3.303421,5.823425-6.361084,11.743835-9.034134,17.859467c-0.92215,2.109772-1.941605,3.705597-4.37822,3.942596
		c-1.09549,0.865112-2.151352,0.898895-3.155579-0.150421c-1.555634-1.9617-0.125854-3.551331,0.585617-5.290344
		c3.375412-8.250366,7.708435-16.007416,12.165817-23.696564c1.066162-1.839142,1.610519-3.23291-1.172379-3.732178
		C202.997513,37.10083,207.432434,36.759583,211.758392,35.97821z"/>
	<path fill="#BA1B8C" d="M252.005402,174.608398c-3.197418-1.690094-6.394821-3.380219-9.592239-5.070343
		c-3.584427-9.501434-2.657181-19.345917-2.121918-29.139923c0.1353-2.47583,0.639191-4.903503-0.90625-7.12204
		c-0.431183-0.794312-0.464722-1.563416,0.175415-2.270355c4.07634-0.919067,6.987579-3.208313,8.39537-7.239929
		c1.236816-1.812164,1.616302-4.299744,4.046234-5.176605c1.808563,1.763672,1.279114,4.049988,0.874069,5.981018
		c-3.194046,15.227173-4.134903,30.465668-0.958694,45.820465C252.197479,171.74472,251.987671,173.200104,252.005402,174.608398z"
		/>
	<path fill="#C7178C" d="M252.002014,118.589203c-1.070358,1.757874-1.479584,3.91272-3.178482,5.293152
		c-1.95665-2.10611-1.607239-4.671265-0.912476-6.980225c2.480225-8.243011,4.520355-16.61496,7.265411-24.7789
		c2.4702,0.705109,4.940414,1.410187,7.410568,2.115326C260.822571,103.122192,255.669174,110.532684,252.002014,118.589203z"/>
	<path fill="#DF0E8C" d="M370.065582,87.882355c32.181-0.463928,58.926514,26.939484,58.73175,60.380676
		c-0.191925,32.94928-27.24353,62.44281-61.794312,61.331146c-32.994904-1.061615-57.251312-26.664856-57.22467-59.818115
		C309.806061,115.392242,335.605499,88.292084,370.065582,87.882355z"/>
	<path fill="#EB0C8D" d="M221.30072,81.501434c2.123688,0.71225,4.247406,1.42453,6.371338,2.136719
		c0.442581,0.853912,1.248718,0.999176,2.091354,1.073364c1.406479,1.876495,0.37619,3.734467-0.125244,5.540741
		c-3.438507,12.386444-7.246033,24.666595-10.702332,37.048767c-0.756577,2.710388-1.624695,5.450989-4.42366,6.908722
		c-3.62114,0.987366-7.231522,1.204163-10.817383-0.153717c-1.898117-1.61908-1.010223-3.55719-0.487213-5.354767
		c4.077759-14.015137,8.179794-28.023193,12.255707-42.03891c0.622375-2.140167,1.018921-4.534698,3.359436-5.723358
		C219.74324,80.709015,220.5802,80.850403,221.30072,81.501434z"/>
	<path fill="#E40D8D" d="M214.96759,133.320282c4.804214-10.753296,6.655548-22.431946,10.481186-33.497864
		c1.709-4.94339,2.892609-10.06842,4.314636-15.110962c2.324707,0.074829,4.500793,0.606873,6.373627,2.071808
		c0.757278,0.891968,0.823761,1.946533,0.527237,2.985138c-4.048904,14.181946-7.811371,28.449432-12.598648,42.415466
		c-0.946045,1.165009-2.317551,1.562958-3.653168,2.031311c-1.656265,0.415649-3.303162,0.585022-4.890869-0.272156
		C215.336044,133.737244,215.151825,133.528748,214.96759,133.320282z"/>
	<path fill="#DF108D" d="M223.413696,132.362793c3.247589-15.470184,8.71962-30.319427,12.723114-45.579071
		c0.702484,0.011749,1.404724,0.023926,2.107086,0.036072c0.350708,0.351074,0.701355,0.702179,1.052002,1.053314
		c1.200836,1.380219,0.952271,2.941589,0.489548,4.482635c-3.632156,12.097107-6.880005,24.307068-10.674744,36.355865
		c-0.473862,1.504517-1.071274,2.982422-2.377121,4.02179C225.550018,133.29718,224.42836,133.302094,223.413696,132.362793z"/>
	<path fill="#CB178C" d="M255.176468,92.12323c1.67308,4.214203-1.36203,7.631927-1.986526,11.459686
		c-1.114624,6.83194-5.170898,13.040192-4.366409,20.299438c-1.228134,4.293976-2.781158,8.216614-8.470596,7.412354
		c-1.255096-1.361664-1.013031-2.969543-0.581482-4.501129c3.204697-11.373749,6.159775-22.82135,9.962387-34.019806
		c0.23024-0.678101,0.682968-1.226257,1.206039-1.711731c0.7061-0.000946,1.412216-0.001923,2.118301-0.002899
		C253.515182,91.909729,254.305725,92.096313,255.176468,92.12323z"/>
	<path fill="#EC168E" d="M187.404968,71.86084c1.052017,0.050079,2.10405,0.100128,3.155838,0.15033
		c2.260803,1.376892,4.765961,1.915039,7.360748,2.142914c3.245285,2.082367,6.992432,2.505585,10.651947,3.219391
		c1.880325,1.421082,4.052277,1.943878,6.354706,2.065002c0.354675,0.47464,0.509872,1.007416,0.474533,1.597595
		c-4.153473,16.898743-9.552185,33.44577-14.309464,50.175629c-0.381638,1.342133-0.858536,2.689026-1.948151,3.688446
		c-1.879242,1.132538-3.966873,1.022919-6.036301,1.028809c-0.589447,0.017731-1.179596,0.011749-1.769058,0.003601
		c-3.213394,0.048401-6.459946-0.36911-9.598969,0.712067c-4.766922,0.659454-9.535233,0.555054-14.301361,0.024536
		c-4.283234-1.423401-5.673874-5.657135-8.36969-8.627319c-2.355347-3.530304-4.482559-7.179199-5.561447-11.340698
		c-1.046448-2.561249-2.09288-5.122467-3.139191-7.684052c-3.335419-10.92453,0.777481-19.073761,9.501663-25.505981
		c4.596558-2.408997,9.193207-4.817078,13.789932-7.224762C178.242188,74.811432,182.823563,73.336121,187.404968,71.86084z"/>
	<path fill="#8B288C" d="M159.813156,127.263306c2.140228,2.762634,4.280472,5.525269,6.4207,8.287903
		c6.449677,1.074768,6.619812,1.072327,6.724091,8.278992c0.039734,2.747314,1.62709,4.954529,1.748581,7.574707
		c-1.41156,0.00354-2.82312,0.00708-4.234665,0.010681c-3.529617-0.000824-7.05925-0.001678-10.588867-0.002533
		c-0.705658-0.000854-1.411331-0.00174-2.117004-0.002594C154.568832,144.554565,155.675644,131.499329,159.813156,127.263306z"/>
	<path fill="#87288B" d="M159.813156,127.263306c-3.363525,7.821747-1.615295,16.076874-2.04718,24.147186
		c-1.361908,0.289429-2.717453,0.614655-4.087204,0.860474c-2.498001,0.448364-4.482834-0.346191-4.298264-3.115936
		c0.638672-9.583923,1.465088-19.156982,2.377426-28.719177c0.123093-1.289978,1.145187-2.494141,1.750687-3.736389
		C156.263275,119.831848,157.69693,123.751282,159.813156,127.263306z"/>
	<path fill="#93268C" d="M174.706528,151.404907c-3.764282-1.280273-3.410446-4.415649-3.143219-7.346191
		c0.389404-4.270721-0.018692-7.880646-5.329468-8.50769c5.283936-0.01239,10.567871-0.024933,15.851807-0.037476
		c0.638779-0.395569,1.170105-0.283173,1.596588,0.334991c0.567078,5.296204,0.735458,10.554688-1.565231,15.564514
		C179.646835,151.410339,177.176697,151.407623,174.706528,151.404907z"/>
	<path fill="#98258C" d="M182.117004,151.413055c-0.20929-5.316559,0.110764-10.598267,1.043671-15.8396
		c2.684647-1.418213,5.722595,0.222595,8.432861-0.973938c0.368042-0.009796,0.736084-0.019623,1.104126-0.029449
		c2.79509,6.308685,1.675385,12.618317,0.004349,18.92804c-0.701218,0.008575-1.40242,0.017151-2.103531,0.025696
		C188.051361,151.695129,184.794235,152.719208,182.117004,151.413055z"/>
	<path fill="#D2148C" d="M250.93988,91.062042c-0.961655,8.173676-4.452286,15.671478-6.311111,23.607605
		c-1.304871,5.571167-3.564911,10.898895-4.275833,16.625061c-0.356598,0.350922-0.713196,0.701843-1.069809,1.052734
		c-0.59256,0.749664-1.414917,1.06131-2.316849,1.22757c-1.794647,0.194244-3.559387,0.204041-5.110519-0.935638
		c-0.869904-1.541168-0.291153-3.071198,0.116409-4.564545c3.21701-11.787537,6.922195-23.434265,10.18309-35.209534
		c0.424088-1.531433,0.980713-2.996948,2.425827-3.901367c0.703903-0.005035,1.407837-0.010071,2.111618-0.015015
		C248.108337,89.653351,249.524109,90.357697,250.93988,91.062042z"/>
	<path fill="#DA138D" d="M244.581085,88.963928c-4.235474,14.453918-8.470932,28.907867-12.706406,43.361816
		c-1.759674,1.547516-3.522644,1.568726-5.289032,0.011444c4.23674-14.821289,8.473465-29.642578,12.71022-44.463959
		C241.155777,87.761078,242.954056,87.947632,244.581085,88.963928z"/>
	<path fill="#A2238D" d="M215.027985,80.406616c-0.027649-0.323456-0.060806-0.646332-0.099655-0.968384
		c7.604187-16.330444,16.633698-31.753204,28.708008-45.253632c0.534348-0.597473,0.635117-1.582733,0.937668-2.386963
		c2.587692,0.206543,6.309601-1.260254,7.505524,0.672394c1.560959,2.522614-2.221313,4.366516-3.723816,6.118256
		c-8.369186,9.757294-15.357666,20.371582-21.680069,31.527832c-2.096237,3.698914-3.240524,7.759155-5.375015,11.385559
		c-0.70311,0.00531-1.406296,0.010864-2.109497,0.016418C217.893845,80.808868,216.069138,82.075195,215.027985,80.406616z"/>
	<path fill="#C8168C" d="M407.647064,506.117645c-2.145081-0.081085-3.303284-1.477997-4.235291-3.176483
		C405.556793,503.022308,406.715118,504.419067,407.647064,506.117645z"/>
	<path fill="#A5228D" d="M203.291763,133.449127c3.891754-0.042358,7.783539-0.084717,11.675552-0.12796l-0.056259,0.162842
		c0.32074,0.412323,0.797485,0.775482,0.87352,1.289429c1.207672,8.161835,0.450439,16.173584-1.904129,24.056274
		c-1.532913,0.132385-2.918045-0.324524-4.232925-1.061523c-2.827866-1.051666-5.655746-2.103363-8.483612-3.15506
		c-2.954269-6.582123-1.325974-13.302612-0.611404-19.998444C201.050735,133.256348,201.779327,132.426941,203.291763,133.449127z"
		/>
	<path fill="#9D248D" d="M201.159317,134.462738c0.001633,6.716614,0.003265,13.433197,0.004745,20.150085
		c-2.820724-0.371155-5.641312-0.742584-8.461975-1.114349c-0.001495-6.310272-0.002899-12.620148-0.004364-18.92923
		c2.120453-0.094299,4.240967-0.189392,6.361481-0.284485C199.802307,133.835999,200.509857,133.806549,201.159317,134.462738z"/>
	<path fill="#AB208D" d="M213.880447,158.829712c-0.779739-8.494781,1.635956-16.859558,1.03093-25.346466
		c1.764938-0.028351,3.530182-0.057495,5.295456-0.086609c0.310867-0.162415,0.617981-0.404755,0.944916-0.430847
		c8.487442-0.677795,8.765808-0.455505,9.089478,8.133728c0.19725,5.234589,0.16156,10.475861,0.023331,15.710876
		c-0.063263,2.395294,0.104752,5.015503-2.665482,6.32666C222.87558,162.180969,218.09668,161.401398,213.880447,158.829712z"/>
	<path fill="#B31D8D" d="M227.599075,163.137054c2.485794-9.352234,0.54808-18.846741,0.855362-28.269104
		c0.042236-1.294952-1.345459-1.418915-2.430435-1.433258c-1.938705-0.025574-3.877716-0.02652-5.816879-0.037903
		c0.793915-1.196808,2.044937-0.976868,3.206543-1.034119c1.057373-0.008301,2.114716-0.016724,3.172012-0.025299
		c1.763031-0.003784,3.526108-0.007416,5.289078-0.011322c1.766846,0.010071,3.533752,0.020477,5.300674,0.030853
		c1.763077,3.191406,0.453598,6.579468,0.549194,9.863068c0.179459,6.163757,0.109512,12.337738,0.018921,18.506195
		c-0.033112,2.253479,0.240829,4.6409-1.617035,6.462494C233.420288,165.551361,230.019226,165.376465,227.599075,163.137054z"/>
	<path fill="#B71C8C" d="M236.126511,167.18866c-0.002945-8.702332,0.052612-17.405304-0.041077-26.106659
		c-0.03212-2.98172,0.198318-5.882263,1.090012-8.725159c0.702652-0.003052,1.405304-0.006165,2.107819-0.009338
		c2.583328-0.215027,3.609619,1.204437,3.148926,3.497131c-2.258545,11.23938-0.395096,22.462219-0.018463,33.692139
		C240.317627,168.754913,238.222061,167.971771,236.126511,167.18866z"/>
	<path fill="#E30C8C" d="M326.807922,119.638306c-1.193787-1.791931,0.196289-3.121521,1.072388-4.228241
		c22.918152-28.950531,62.821411-27.688354,83.447144-0.282013c19.970123,26.535339,11.907806,61.968628-13.583557,79.239685
		c-31.138794,21.09726-72.849426,3.131805-80.321838-34.021912c-2.424072-12.052734-0.903046-23.212799,3.922394-34.193024
		c0.692688-1.576233,1.114777-3.739014,3.685486-3.422241c0.37207,0.313568,0.56073,0.713684,0.573303,1.198975
		c-0.286224,1.824738-0.479309,3.642792,0.448914,5.372345c0.728943,1.864563,1.991364,3.594238,1.45636,5.775665
		c-9.588409,27.962372,10.221863,57.676025,39.588409,59.369812c23.230865,1.339874,45.608765-19.559723,46.552826-43.4776
		c0.95871-24.287781-13.93631-43.109467-37.824982-47.301178c-11.956268-2.097961-22.601562,1.768005-32.330536,8.553802
		c-1.585449,1.105804-2.883148,2.59082-4.483215,3.69928C334.828369,116.777405,330.697876,117.811768,326.807922,119.638306z"/>
	<path fill="#FEFEFE" d="M326.807922,119.638306c2.915649-4.445251,7.460205-4.44339,12.019104-4.402222
		c4.097351-0.25882,6.605225,2.108307,8.665161,5.23175c4.755676,8.659851-1.434265,18.963318-12.694183,19.422852
		c-3.2034-0.921692-6.530579-1.675842-7.817474-5.38504c-0.725433-1.795105-1.450836-3.59021-2.17627-5.385315
		c-0.371185-1.736816-0.443939-3.47049,0.054932-5.198151c0.056946-0.397156,0.113861-0.794312,0.170746-1.191559
		C325.622589,121.699829,326.215271,120.669067,326.807922,119.638306z"/>
	<path fill="#EB108E" d="M201.159317,134.462738c-0.700043-0.058136-1.400101-0.116302-2.100128-0.176208
		c4.266129-15.06131,8.452286-30.144379,12.867065-45.160248c0.863235-2.936066,0.762161-6.285767,3.100937-8.718903
		c1.441498,0.171082,3.064514-0.339661,4.163818,1.11087c-4.742905,10.719543-6.811508,22.282501-10.487183,33.34198
		c-2.033875,6.119629-3.622589,12.387207-5.412018,18.58847C202.444702,133.500366,201.64502,133.651306,201.159317,134.462738z"/>
	<path fill="#9D248D" d="M191.593536,134.599518c-2.629395,1.896973-5.641251,0.478882-8.432693,0.97345
		c-0.358322-0.019379-0.716461-0.039246-1.074905-0.059265C185.104294,133.641785,188.415039,134.808655,191.593536,134.599518z"/>
	<path fill="#E60A8D" d="M346.455841,120.665466c-1.63678-3.083008-4.918671-3.854523-7.628815-5.429382
		c5.523041-7.652496,13.834656-10.616425,22.424164-12.411774c17.448425-3.647003,32.202637,2.032043,43.264648,15.576599
		c11.572784,14.170013,13.825775,30.394073,6.976105,47.548157c-7.708801,19.305786-25.128204,30.40741-43.764069,29.835175
		c-23.761963-0.729614-43.933014-20.778503-43.672363-44.168823c0.064697-5.80423-1.485535-12.002014,2.925018-17.109772
		c2.441315,1.524048,4.519165,3.734192,7.610199,4.032043c1.60434,1.798004,1.269104,3.905121,0.994354,6.022888
		c-2.411713,18.588837,10.009857,35.550262,28.506287,38.941498c16.361237,2.999786,34.954498-9.899902,38.417175-27.480225
		c5.039368-25.585205-14.301117-42.816071-33.187622-42.37381c-6.136017,0.143707-11.723816,2.187927-17.040955,5.129089
		C350.475922,119.775055,348.823273,121.358185,346.455841,120.665466z"/>
	<path fill="#DF0E8C" d="M324.859192,123.92218c-0.01828,1.732758-0.03656,3.465485-0.054932,5.198212
		C323.608215,127.374786,323.569305,125.641479,324.859192,123.92218z"/>
	<path fill="#EB0B8D" d="M346.455841,120.665466c7.480621-4.764313,15.194733-8.629974,24.463043-8.47522
		c17.766632,0.296631,33.537598,16.144257,33.551697,33.998688c0.014221,17.980347-7.889252,30.05368-23.141144,36.471863
		c-20.76416,8.737823-42.242432-5.854126-46.848389-25.891174c-1.439301-6.261505,0.199249-12.164734,0.10968-18.23172
		C346.082733,136.945343,349.863098,131.251038,346.455841,120.665466z"/>
	<path fill="#EB0F8E" d="M354.705902,148.670502c0.020447-8.080688,7.085602-15.299103,14.934265-15.258179
		c7.582245,0.03952,14.758728,7.332306,14.712189,14.950684c-0.047607,7.800659-7.957672,15.836243-15.506653,15.752686
		C361.306519,164.032257,354.685364,156.799805,354.705902,148.670502z"/>
	<path fill="#EC148E" d="M368.966187,155.676971c-4.055939-0.0979-6.628601-1.913879-6.824219-6.213196
		c-0.211609-4.651703,2.707214-7.578156,7.388275-7.574585c3.804901,0.00293,7.243591,3.212769,7.28952,6.804413
		C376.862488,152.03241,372.789368,155.65094,368.966187,155.676971z"/>
</g>
</svg>
