<svg xmlns="http://www.w3.org/2000/svg" viewBox="0 0 810 462.4871130596428" width="810" height="462.4871130596428">
  <rect x="0" y="0" fill="rgba(255, 255, 255, 0.0)" width="810" height="462.4871130596428"/>
  <g transform="translate(25 25)">
    <g transform="translate(0 -2.6794919243112254)">
      <g>
        <line x1="0" y1="20" x2="370" y2="20" stroke="black" stroke-width="2"/>
        <polyline points="370,14.226497308103742 380,20 370,25.773502691896258 370,14.226497308103742" fill="black" stroke="black" stroke-width="2" stroke-linecap="square"/>
      </g>
      <g transform="translate(339 0)">
        <line x1="0" y1="10" x2="0" y2="30" stroke="black" stroke-width="2"/>
      </g>
      <g transform="rotate(30 200 20) translate(200 0)">
        <g>
          <line x1="0" y1="20" x2="214.75208614068023" y2="20" stroke="black" stroke-width="2"/>
          <polyline points="214.75208614068023,14.226497308103742 224.75208614068023,20 214.75208614068023,25.773502691896258 214.75208614068023,14.226497308103742" fill="black" stroke="black" stroke-width="2" stroke-linecap="square"/>
        </g>
        <g transform="translate(183.75208614068023 0)">
          <line x1="0" y1="10" x2="0" y2="30" stroke="black" stroke-width="2"/>
        </g>
        <g transform="translate(118.56406460551017 0)">
          <ellipse cx="20" cy="20" rx="19" ry="19" fill="hsl(35, 60%, 80%)" stroke="black" stroke-width="2"/>
          <text x="0" y="0" fill="black" font-family="Arial, Helvetica, sans-serif" font-size="18px" font-weight="normal" font-style="normal" dominant-baseline="middle" text-anchor="middle" transform="translate(20 20)">f</text>
        </g>
        <g transform="translate(49.282032302755084 0)">
          <ellipse cx="20" cy="20" rx="19" ry="19" fill="hsl(253, 60%, 80%)" stroke="black" stroke-width="2"/>
          <text x="0" y="0" fill="black" font-family="Arial, Helvetica, sans-serif" font-size="18px" font-weight="normal" font-style="normal" dominant-baseline="middle" text-anchor="middle" transform="translate(20 20)">e</text>
        </g>
      </g>
      <g transform="rotate(30 100 20) translate(100 0)">
        <g>
          <line x1="0" y1="20" x2="237.84609690826528" y2="20" stroke="black" stroke-width="2"/>
          <polyline points="237.84609690826528,14.226497308103742 247.84609690826528,20 237.84609690826528,25.773502691896258 237.84609690826528,14.226497308103742" fill="black" stroke="black" stroke-width="2" stroke-linecap="square"/>
        </g>
        <g transform="translate(206.84609690826528 0)">
          <line x1="0" y1="10" x2="0" y2="30" stroke="black" stroke-width="2"/>
        </g>
        <g transform="translate(95.47005383792515 0)">
          <ellipse cx="20" cy="20" rx="19" ry="19" fill="hsl(79, 60%, 80%)" stroke="black" stroke-width="2"/>
          <text x="0" y="0" fill="black" font-family="Arial, Helvetica, sans-serif" font-size="18px" font-weight="normal" font-style="normal" dominant-baseline="middle" text-anchor="middle" transform="translate(20 20)">d</text>
        </g>
        <g transform="translate(49.282032302755084 0)">
          <ellipse cx="20" cy="20" rx="19" ry="19" fill="hsl(32, 60%, 80%)" stroke="black" stroke-width="2"/>
          <text x="0" y="0" fill="black" font-family="Arial, Helvetica, sans-serif" font-size="18px" font-weight="normal" font-style="normal" dominant-baseline="middle" text-anchor="middle" transform="translate(20 20)">c</text>
        </g>
      </g>
      <g transform="rotate(30 20 20) translate(20 0)">
        <g>
          <line x1="0" y1="20" x2="445.69219381653056" y2="20" stroke="black" stroke-width="2"/>
          <polyline points="445.69219381653056,14.226497308103742 455.69219381653056,20 445.69219381653056,25.773502691896258 445.69219381653056,14.226497308103742" fill="black" stroke="black" stroke-width="2" stroke-linecap="square"/>
        </g>
        <g transform="translate(414.69219381653056 0)">
          <line x1="0" y1="10" x2="0" y2="30" stroke="black" stroke-width="2"/>
        </g>
        <g transform="translate(234.03411844343532 0)">
          <ellipse cx="20" cy="20" rx="19" ry="19" fill="hsl(44, 60%, 80%)" stroke="black" stroke-width="2"/>
          <text x="0" y="0" fill="black" font-family="Arial, Helvetica, sans-serif" font-size="18px" font-weight="normal" font-style="normal" dominant-baseline="middle" text-anchor="middle" transform="translate(20 20)">b</text>
        </g>
        <g transform="translate(72.37604307034012 0)">
          <ellipse cx="20" cy="20" rx="19" ry="19" fill="hsl(321, 60%, 80%)" stroke="black" stroke-width="2"/>
          <text x="0" y="0" fill="black" font-family="Arial, Helvetica, sans-serif" font-size="18px" font-weight="normal" font-style="normal" dominant-baseline="middle" text-anchor="middle" transform="translate(20 20)">a</text>
        </g>
      </g>
    </g>
    <g transform="translate(0 282.4871130596428)">
      <rect x="0" y="10" width="760" height="48" fill="rgba(255, 255, 255, 0.0)" stroke="black" stroke-width="2" rx="0"/>
      <text x="380" y="35px" fill="black" font-family="Arial, Helvetica, sans-serif" font-size="24px" font-weight="normal" font-style="normal" dominant-baseline="middle" text-anchor="middle" width="760">concatAll</text>
    </g>
    <g transform="translate(0 372.4871130596428)">
      <g>
        <line x1="0" y1="20" x2="750" y2="20" stroke="black" stroke-width="2"/>
        <polyline points="750,14.226497308103742 760,20 750,25.773502691896258 750,14.226497308103742" fill="black" stroke="black" stroke-width="2" stroke-linecap="square"/>
      </g>
      <g transform="translate(719 0)">
        <line x1="0" y1="10" x2="0" y2="30" stroke="black" stroke-width="2"/>
      </g>
      <g transform="translate(660 0)">
        <ellipse cx="20" cy="20" rx="19" ry="19" fill="hsl(35, 60%, 80%)" stroke="black" stroke-width="2"/>
        <text x="0" y="0" fill="black" font-family="Arial, Helvetica, sans-serif" font-size="18px" font-weight="normal" font-style="normal" dominant-baseline="middle" text-anchor="middle" transform="translate(20 20)">f</text>
      </g>
      <g transform="translate(600 0)">
        <ellipse cx="20" cy="20" rx="19" ry="19" fill="hsl(253, 60%, 80%)" stroke="black" stroke-width="2"/>
        <text x="0" y="0" fill="black" font-family="Arial, Helvetica, sans-serif" font-size="18px" font-weight="normal" font-style="normal" dominant-baseline="middle" text-anchor="middle" transform="translate(20 20)">e</text>
      </g>
      <g transform="translate(460 0)">
        <ellipse cx="20" cy="20" rx="19" ry="19" fill="hsl(79, 60%, 80%)" stroke="black" stroke-width="2"/>
        <text x="0" y="0" fill="black" font-family="Arial, Helvetica, sans-serif" font-size="18px" font-weight="normal" font-style="normal" dominant-baseline="middle" text-anchor="middle" transform="translate(20 20)">d</text>
      </g>
      <g transform="translate(420 0)">
        <ellipse cx="20" cy="20" rx="19" ry="19" fill="hsl(32, 60%, 80%)" stroke="black" stroke-width="2"/>
        <text x="0" y="0" fill="black" font-family="Arial, Helvetica, sans-serif" font-size="18px" font-weight="normal" font-style="normal" dominant-baseline="middle" text-anchor="middle" transform="translate(20 20)">c</text>
      </g>
      <g transform="translate(220 0)">
        <ellipse cx="20" cy="20" rx="19" ry="19" fill="hsl(44, 60%, 80%)" stroke="black" stroke-width="2"/>
        <text x="0" y="0" fill="black" font-family="Arial, Helvetica, sans-serif" font-size="18px" font-weight="normal" font-style="normal" dominant-baseline="middle" text-anchor="middle" transform="translate(20 20)">b</text>
      </g>
      <g transform="translate(80 0)">
        <ellipse cx="20" cy="20" rx="19" ry="19" fill="hsl(321, 60%, 80%)" stroke="black" stroke-width="2"/>
        <text x="0" y="0" fill="black" font-family="Arial, Helvetica, sans-serif" font-size="18px" font-weight="normal" font-style="normal" dominant-baseline="middle" text-anchor="middle" transform="translate(20 20)">a</text>
      </g>
    </g>
  </g>
</svg>