<svg xmlns="http://www.w3.org/2000/svg" xmlns:xlink="http://www.w3.org/1999/xlink" id="Ebene_1" x="0" y="0" enable-background="new 0 0 283.5 283.5" version="1.1" viewBox="0 0 283.5 283.5" xml:space="preserve"><style type="text/css">.st0{fill:#e32286}.st1{fill:url(#SVGID_1_)}.st2{fill:url(#SVGID_2_)}.st3{fill:url(#SVGID_3_)}</style><g><path d="M29.6,175.3c-5.2-16.2-6.7-33.3-3.7-50.9c1.3-7.3,3.3-14.3,5.5-21.4c0,0,13.8-45.3,60.5-66 c0,0,16.1-8.5,40.3-9.1c0,0-3.3-3.2-5.4-4.6c-11.4-7.6-28.4-10.1-38.7,0.6c-3.1,3.2-5.7,6.7-8.6,9.9c-3.3,3.6-7.3,6.6-11.9,8.3 c-4,1.5-8,1.2-12.1,1.9c-4.2,0.7-8.5,2.2-11.9,4.9c-3.7,3-5.2,7-5.6,11.6c-0.4,3.6-0.3,7.3-0.5,10.9c-0.5,10.6-3.9,13.6-11.5,19.5 c-3.2,2.4-5.9,5.6-7.9,9c-6,10.6,3.6,21.6,4.1,32.3c0.1,2.2-0.1,4.4-0.9,6.5c-0.8,2.3-2.4,3.8-3.7,5.7c-1.8,2.5-3,5.5-2.5,8.6 c0.5,3.1,2.1,6,3.6,8.7c2.9,4.8,6.5,9.1,10.3,13.2C29.2,174.9,29.4,175.1,29.6,175.3" class="st0"/><linearGradient id="SVGID_1_" x1="53.496" x2="177.932" y1="247.701" y2="115.323" gradientUnits="userSpaceOnUse"><stop offset="0" stop-color="#E01D84"/><stop offset=".401" stop-color="#DF1D85"/><stop offset=".77" stop-color="#932C87"/><stop offset="1" stop-color="#5D2F88"/></linearGradient><path d="M220.4,213.7c23-10,32.8-27.3,32.8-27.3c21.5-29.3,14.2-60.2,14.2-60.2c-13.7,29.8-26.2,38-26.2,38 c33.7-51.3,0.2-82.3,0.2-82.3c13.7,29.2-4.5,64.8-4.5,64.8c-15.3,32.2-37,43.7-37,43.7c24.2,4.5,42-11.8,42-11.8 c-34.7,37.5-72.3,35.7-72.3,35.7c15.8,17.7,39.5,16.2,39.5,16.2c-31,7.3-60.1-3-84-22.9c-4.5-3.7-8.8-7.7-12.8-12 c0,0-3.6-3.8-4.3-4.8l-0.1-0.1c-0.5,18.5,18.8,35.7,18.8,35.7c-24.2-10-35.3-31.7-35.3-31.7s-16.3-27.8-4.5-59.5 c11.8-31.7,47.5-38.5,47.5-38.5c29.5,14.3,54.5,18.8,54.5,18.8c52.7,8.8,49.7-17,49.7-17c0.5-22.2-33-45.8-33-45.8 C145.9,8.4,91.9,37,91.9,37c-46.7,20.7-60.5,66-60.5,66c-2.2,7.1-4.2,14.1-5.5,21.4c-5.1,29.7,2.6,57.8,19.3,82.8 c26,38.8,68.2,52.2,68.2,52.2c62.5,21.2,105.2-10,105.2-10c39.3-27,47.2-58.2,47.2-58.2C234.1,216,220.4,213.7,220.4,213.7z M171.6,67.8c3,0,5.4,2.4,5.4,5.4s-2.4,5.4-5.4,5.4s-5.4-2.4-5.4-5.4S168.6,67.8,171.6,67.8z" class="st1"/><radialGradient id="SVGID_2_" cx="190.456" cy="80.2" r="121.582" gradientTransform="matrix(1 2.387956e-03 -1.996728e-03 0.8362 0.1607 12.6849)" gradientUnits="userSpaceOnUse"><stop offset="0" stop-color="#E01D84"/><stop offset=".139" stop-color="#DE1E85"/><stop offset=".285" stop-color="#D62085"/><stop offset=".434" stop-color="#C92386"/><stop offset=".586" stop-color="#B72786"/><stop offset=".739" stop-color="#9D2B87"/><stop offset=".891" stop-color="#7C2E88"/><stop offset="1" stop-color="#5D2F88"/></radialGradient><path d="M238.5,98.4c0.5-22.2-33-45.8-33-45.8C145.8,8.4,91.8,37,91.8,37c-46.7,20.7-60.5,66-60.5,66 c-2.7,7.7-5.1,19.5-5.1,19.5c-2.9,14.8-1.6,28.5-1.6,28.5c1.2,13.1,4.1,21.9,4.1,21.9c3,9.4,4.4,12.3,4.4,12.3 c-0.1-0.3-0.6-2.5-0.6-2.5s-4.2-20.2-0.3-39.6c0,0,3.4-20.2,17.2-35.8c0,0,22.4-31.9,64.1-19.4c0,0,9,3.2,12.1,4.8 c3.1,1.5,8.5,3.8,8.5,3.8c29.5,14.3,54.5,18.8,54.5,18.8C241.5,124.2,238.5,98.4,238.5,98.4z M171.6,78.7c-3,0-5.4-2.4-5.4-5.4 s2.4-5.4,5.4-5.4s5.4,2.4,5.4,5.4S174.6,78.7,171.6,78.7z" class="st2"/><linearGradient id="SVGID_3_" x1="83.212" x2="137.371" y1="62.336" y2="62.336" gradientUnits="userSpaceOnUse"><stop offset="0" stop-color="#E01D84"/><stop offset=".238" stop-color="#DA1E85"/><stop offset=".658" stop-color="#C72085"/><stop offset=".999" stop-color="#B52284"/></linearGradient><path d="M137.4,58.2l-34.1-10.6c-0.2,0-1.2-0.5-3,0c0,0-20.1,5.1-16.6,16.1c0,0,2.1,6.9,7.8,13.6l37.5-1.8L137.4,58.2z" class="st3"/></g></svg>