<?xml version="1.0" encoding="utf-8"?>

<svg version="1.1" id="Ebene_1" xmlns="http://www.w3.org/2000/svg" xmlns:xlink="http://www.w3.org/1999/xlink" x="0px" y="0px"
	 viewBox="0 0 283.5 283.5" style="enable-background:new 0 0 283.5 283.5;" xml:space="preserve">
<style type="text/css">
	.st0{fill:#030304;}
</style>
<g>
	<path class="st0" d="M93.2,39.7L93.2,39.7C69.7,50.1,55,67,46.7,79.3c-9,13.4-12.5,24.5-12.5,24.6l0,0.1l0,0.1
		c-2.6,7.4-5,19-5,19.1c-2.8,14.2-1.5,27.4-1.5,27.6c0.1,0.9,0.2,1.8,0.3,2.6c0.3-3.5,0.7-7.1,1.4-10.7c0.2-1.4,3.9-21.3,17.9-37.1
		C48.8,103.3,65,82,94.8,82c6.4,0,13.1,1,19.8,3l0.1,0l0.1,0c0.4,0.1,9.2,3.3,12.4,4.9c3,1.5,8.3,3.8,8.4,3.8l0.1,0l0.1,0
		c28.7,14,53.5,18.5,53.7,18.6c7.1,1.2,13.5,1.8,19.2,1.8c11.4,0,19.6-2.5,23.9-7.3c3.5-3.9,3.1-8.2,3.1-8.2l0-0.2l0-0.2
		c0.2-10.4-8.3-21.6-15.5-29.1c-8-8.4-16.2-14.2-16.3-14.2l0,0l0,0c-21.6-16-44.7-24.1-68.9-24.1h0C110.2,30.9,93.4,39.6,93.2,39.7
		L93.2,39.7z M171.6,67.8c3,0,5.4,2.4,5.4,5.4s-2.4,5.4-5.4,5.4s-5.4-2.4-5.4-5.4S168.6,67.8,171.6,67.8z M101.8,47.3
		c0.8,0,1.3,0.2,1.5,0.2l34.1,10.6l-1.3,2.7l-16.3-5.1l-17.3-5.4c-0.1,0-0.1,0-0.2-0.1c-0.1,0-0.3-0.1-0.5-0.1c-0.2,0-0.5,0-0.7,0.1
		l0,0l0,0c-3.1,0.8-11.6,3.8-14.1,8.3c-0.7,1.3-0.8,2.6-0.4,4c0,0.1,1.8,5.7,6.3,11.5l22.6-1.1l15.1-0.7l-1.5,3.1l-37.5,1.8
		c-5.6-6.8-7.8-13.6-7.8-13.6c-3.5-11,16.6-16.1,16.6-16.1C100.8,47.4,101.4,47.3,101.8,47.3z M220.4,213.7
		c23-10,32.8-27.3,32.8-27.3c21.5-29.3,14.2-60.2,14.2-60.2c-13.7,29.8-26.2,38-26.2,38c33.7-51.3,0.2-82.3,0.2-82.3
		c13.7,29.2-4.5,64.8-4.5,64.8c-15.3,32.2-37,43.7-37,43.7c24.2,4.5,42-11.8,42-11.8c-34.7,37.5-72.3,35.7-72.3,35.7
		c15.8,17.7,39.5,16.2,39.5,16.2c-31,7.3-60.1-3-84-22.9c-4.5-3.7-8.8-7.7-12.8-12c0,0-3.6-3.8-4.3-4.8l-0.1-0.1
		c-0.5,18.5,18.8,35.7,18.8,35.7c-24.2-10-35.3-31.7-35.3-31.7s-16.3-27.8-4.5-59.5c11.7-31.3,46.6-38.3,47.5-38.5
		c0.2,0.1,0.3,0.2,0.5,0.2c-0.2-0.1-0.3-0.2-0.5-0.3c0,0-5.4-2.3-8.5-3.8c-3.1-1.5-12.1-4.8-12.1-4.8c-6.8-2-13.2-2.9-19-2.9
		c-29.5,0-45.2,22.3-45.2,22.3c-13.9,15.6-17.2,35.8-17.2,35.8c-3.9,19.3,0.3,39.6,0.3,39.6s0.4,1.6,0.5,2.3
		c3.2,7.6,7.3,15.1,12.1,22.2c26,38.8,68.2,52.2,68.2,52.2c62.5,21.2,105.2-10,105.2-10c39.3-27,47.2-58.2,47.2-58.2
		C234.1,216,220.4,213.7,220.4,213.7z M30.9,179.1C30.9,179.1,30.9,179.1,30.9,179.1C30.9,179.1,30.9,179.1,30.9,179.1
		C30.9,179.1,30.9,179.1,30.9,179.1z M28.8,172.9c0,0-2.5-7.6-3.8-19.2c0,0.1,0,0.3,0,0.4c0-0.2,0-0.4-0.1-0.7
		c-0.1-0.8-0.2-1.7-0.3-2.5c0,0-1.4-13.6,1.6-28.5c0,0,0.1-0.4,0.2-1c0.4-1.9,0.8-3.9,1.3-5.8c0-0.1,0-0.2,0.1-0.3c0,0,0,0,0,0
		c0,0,0,0,0,0c0.9-3.9,2.2-8.6,3.5-12.4c0,0,13.8-45.3,60.5-66c0,0,16.1-8.5,40.4-9.1c0,0,0,0,0,0c0,0-3.3-3.2-5.4-4.6
		c-11.4-7.6-28.4-10.1-38.7,0.6c-3.1,3.2-5.7,6.7-8.6,9.9c-3.3,3.6-7.3,6.6-11.9,8.3c-4,1.5-8,1.2-12.1,1.9
		c-4.2,0.7-8.5,2.2-11.9,4.9c-3.7,3-5.2,7-5.6,11.6c-0.4,3.6-0.3,7.3-0.5,10.9c-0.5,10.6-3.9,13.6-11.5,19.5c-3.2,2.4-5.9,5.6-7.9,9
		c-6,10.6,3.6,21.6,4.1,32.3c0.1,2.2-0.1,4.4-0.9,6.5c-0.8,2.3-2.4,3.8-3.7,5.7c-1.8,2.5-3,5.5-2.5,8.6c0.5,3.1,2.1,6,3.6,8.7
		c2.9,4.8,6.5,9.1,10.3,13.2c0.2,0.2,0.4,0.4,0.6,0.7c0-0.1-0.1-0.2-0.1-0.3c0.1,0.3,0.2,0.6,0.3,0.9C29.5,175,29.2,174,28.8,172.9z
		 M24.5,137c0,0.4,0,0.7,0,1.1c0,0,0,0.1,0,0.1C24.5,137.7,24.5,137.3,24.5,137z M26.3,162.6c0,0.2,0.1,0.4,0.1,0.5
		c0,0.1,0,0.2,0.1,0.4C26.4,163.2,26.4,162.9,26.3,162.6z"/>
</g>
</svg>
