<?xml version="1.0" encoding="utf-8"?>

<svg version="1.1" id="Ebene_1" xmlns="http://www.w3.org/2000/svg" xmlns:xlink="http://www.w3.org/1999/xlink" x="0px" y="0px"
	 viewBox="0 0 283.5 283.5" style="enable-background:new 0 0 283.5 283.5;" xml:space="preserve">
<style type="text/css">
	.st0{fill:#FFFFFF;}
	.st1{fill:#E32286;}
	.st2{fill:url(#SVGID_1_);}
	.st3{fill:url(#SVGID_2_);}
	.st4{fill:url(#SVGID_3_);}
</style>
<g>
	<g>
		<path class="st0" d="M220.4,213.7c23-10,32.8-27.3,32.8-27.3c21.5-29.3,14.2-60.2,14.2-60.2c-13.7,29.8-26.2,38-26.2,38
			c33.7-51.3,0.2-82.3,0.2-82.3c13.7,29.2-4.5,64.8-4.5,64.8c-15.3,32.2-37,43.7-37,43.7c24.2,4.5,42-11.8,42-11.8
			c-34.7,37.5-72.3,35.7-72.3,35.7c15.8,17.7,39.5,16.2,39.5,16.2c-31,7.3-60.1-3-84-22.9c-4.5-3.7-8.8-7.7-12.8-12
			c0,0-3.6-3.8-4.3-4.8l-0.1-0.1c-0.5,18.5,18.8,35.7,18.8,35.7c-24.2-10-35.3-31.7-35.3-31.7s-16.3-27.8-4.5-59.5
			c11.7-31.3,46.6-38.3,47.5-38.5c29.5,14.3,54.5,18.8,54.5,18.8c7.4,1.2,13.7,1.8,19.1,1.8c32.8,0.2,30.6-18.8,30.6-18.8
			c0.5-22.2-33-45.8-33-45.8c-26.1-19.3-51.1-24.7-71-24.6c-0.8,0-1.6,0-2.4,0c0,0-3.3-3.2-5.4-4.6c-11.4-7.6-28.4-10.1-38.7,0.6
			c-3.1,3.2-5.7,6.7-8.6,9.9c-3.3,3.6-7.3,6.6-11.9,8.3c-4,1.5-8,1.2-12.1,1.9c-4.2,0.7-8.5,2.2-11.9,4.9c-3.7,3-5.2,7-5.6,11.6
			c-0.4,3.6-0.3,7.3-0.5,10.9c-0.5,10.6-3.9,13.6-11.5,19.5c-3.2,2.4-5.9,5.6-7.9,9c-6,10.6,3.6,21.6,4.1,32.3
			c0.1,2.2-0.1,4.4-0.9,6.5c-0.8,2.3-2.4,3.8-3.7,5.7c-1.8,2.5-3,5.5-2.5,8.6c0.5,3.1,2.1,6,3.6,8.7c2.9,4.8,6.5,9.1,10.3,13.2
			c0.2,0.2,0.4,0.4,0.6,0.7c0-0.1-0.1-0.2-0.1-0.3c0.4,1.4,0.9,2.7,1.4,4c1.6,4.5,2.3,6.1,2.3,6.1c0,0,0-0.1-0.1-0.2
			c3.2,7.6,7.3,15.1,12.1,22.2c26,38.8,68.2,52.2,68.2,52.2c62.5,21.2,105.2-10,105.2-10c39.3-27,47.2-58.2,47.2-58.2
			C234.1,216,220.4,213.7,220.4,213.7z"/>
		<path class="st0" d="M105.9,16.7c7.3,0,14.8,2.6,20.8,6.6c2.1,1.4,5.4,4.6,5.4,4.6c0.8,0,1.6,0,2.4,0c0.1,0,0.2,0,0.3,0
			c19.8,0,44.7,5.4,70.7,24.6c0,0,33.5,23.7,33,45.8c0,0,2.2,18.8-30,18.8c-0.2,0-0.4,0-0.6,0c-5.4,0-11.7-0.6-19.1-1.8
			c0,0-25-4.5-54.5-18.8c-0.8,0.2-35.8,7.2-47.5,38.5c-11.8,31.7,4.5,59.5,4.5,59.5s11.2,21.7,35.3,31.7c0,0-19.3-17.2-18.8-35.7
			l0.1,0.1c0.7,1,4.3,4.8,4.3,4.8c4,4.3,8.3,8.3,12.8,12c18.8,15.6,40.6,25.2,64.1,25.2c6.5,0,13.2-0.7,19.9-2.3c0,0-0.5,0-1.4,0
			c-5.3,0-24.6-1.1-38.1-16.2c0,0,0.3,0,0.9,0c5.8,0,39.9-1.5,71.5-35.7c0,0-13.8,12.6-33.5,12.6c-2.7,0-5.6-0.2-8.5-0.8
			c0,0,21.7-11.5,37-43.7c0,0,18.2-35.7,4.5-64.8c0,0,33.5,31-0.2,82.3c0,0,12.5-8.2,26.2-38c0,0,7.3,30.8-14.2,60.2
			c0,0-9.8,17.3-32.8,27.3c0,0,0.3,0.1,1,0.1c3.7,0,17.6-1.7,44.3-22.6c0,0-7.8,31.2-47.2,58.2c0,0-23.8,17.4-61.8,17.4
			c-12.9,0-27.5-2-43.3-7.4c0,0-42.2-13.3-68.2-52.2c-4.8-7.2-8.9-14.6-12.1-22.2c0,0.1,0.1,0.2,0.1,0.2c0,0-0.8-1.6-2.3-6.1
			c-0.5-1.3-0.9-2.7-1.4-4c0,0.1,0,0.2,0.1,0.3c-0.2-0.2-0.4-0.4-0.6-0.7c-3.8-4-7.4-8.4-10.3-13.2c-1.6-2.6-3.2-5.6-3.6-8.7
			c-0.5-3.1,0.7-6.1,2.5-8.6c1.4-1.9,2.9-3.4,3.7-5.7c0.7-2.1,1-4.3,0.9-6.5C21.6,121.4,12,110.4,18,99.8c2-3.5,4.7-6.6,7.9-9
			c7.6-5.9,11-8.9,11.5-19.5c0.2-3.6,0.1-7.3,0.5-10.9c0.5-4.6,1.9-8.6,5.6-11.6c3.4-2.7,7.7-4.2,11.9-4.9c4.1-0.7,8.1-0.4,12.1-1.9
			c4.6-1.7,8.7-4.6,11.9-8.3c2.9-3.3,5.6-6.8,8.6-9.9C92.9,18.8,99.3,16.7,105.9,16.7 M33.2,185.2L33.2,185.2L33.2,185.2
			 M265.7,191.2L265.7,191.2 M105.9,9.7C105.9,9.7,105.9,9.7,105.9,9.7c-9.1,0-17,3.2-22.9,9.3c-2,2.1-3.8,4.2-5.6,6.3
			c-1.1,1.3-2.2,2.6-3.3,3.8c-2.6,2.9-5.8,5.1-9.1,6.3c-1.7,0.6-3.6,0.8-5.8,1c-1.5,0.1-3.2,0.3-5,0.6c-6.1,1.1-11.2,3.2-15.1,6.3
			c-4.8,3.9-7.5,9.2-8.2,16.4c-0.3,2.6-0.3,5.1-0.4,7.6c0,1.3-0.1,2.5-0.1,3.7c-0.4,7.5-1.8,8.9-8.8,14.3c-3.9,3-7.3,6.9-9.7,11.1
			c-5.4,9.5-2.1,18.8,0.6,26.2c1.3,3.6,2.5,7,2.6,9.8c0.1,1.4-0.1,2.7-0.5,3.8c-0.2,0.6-0.8,1.3-1.5,2.3c-0.4,0.5-0.9,1.1-1.3,1.8
			c-3.1,4.4-4.4,9.1-3.7,13.7c0.7,4.3,2.7,8.1,4.6,11.2c2.8,4.6,6.3,9.2,10.8,13.9c0.3,0.8,0.5,1.6,0.8,2.4c1.6,4.6,2.5,6.5,2.7,6.8
			c0,0.1,0.1,0.1,0.1,0.2c3.3,7.7,7.5,15.3,12.4,22.7c26.8,40,69.1,54.1,71.8,54.9c15.1,5.1,30.5,7.7,45.5,7.7
			c39,0,63.8-17.2,65.9-18.6c39.3-27,48.8-58.1,49.8-61.9c0.2-0.6,0.3-1.3,0.3-2c0-3.9-3.1-7-7-7c0,0,0,0,0,0c0,0-0.1,0-0.1,0
			c0,0,0,0,0,0c0,0,0,0,0,0c-1.1,0-2.1,0.3-3,0.7c18.5-29.8,11.9-59,11.5-60.3c-0.7-2.9-3.2-5.1-6.1-5.3c-0.2,0-0.5,0-0.7,0
			c-1.5,0-3,0.5-4.2,1.4c0.1-6.1-0.7-12.4-2.6-18.8C256,86,246.5,77.1,246.1,76.7c-1.3-1.2-3-1.9-4.8-1.9c-1.1,0-2.3,0.3-3.3,0.8
			c-2.8-4.4-6.4-8.8-10.8-13.4c-8.4-8.8-16.7-14.8-17.6-15.4c-23.3-17.2-48.5-26-74.8-26c-1.3-1.1-2.9-2.5-4.2-3.4
			C123.2,12.6,114.2,9.7,105.9,9.7L105.9,9.7L105.9,9.7z M101.4,197.2c-2.5-3.4-3.7-5.8-3.8-5.8c-0.1-0.1-0.1-0.2-0.2-0.3
			c-0.1-0.2-14.4-25.5-4-53.5c8.7-23.3,32.8-31.5,40.1-33.5c29,13.7,53,18.1,54,18.3c0,0,0.1,0,0.1,0c7.4,1.2,14.2,1.9,20.2,1.9
			c0.2,0,0.4,0,0.7,0c13.8,0,24-3.2,30.4-9.6c-1.8,15.9-8.2,28.7-8.3,28.9c0,0-0.1,0.1-0.1,0.2c-14,29.4-33.8,40.4-34,40.5
			c-2.6,1.4-4.1,4.3-3.6,7.2c0.5,2.9,2.7,5.3,5.7,5.8c2.1,0.4,4.2,0.7,6.3,0.8c-3.5,1.7-7.1,3.3-10.7,4.5
			c-12.2,4.3-21.3,4.6-23.7,4.6c-0.3,0-0.5,0-0.6,0c-0.1,0-0.2,0-0.3,0c-2.7,0-5.1,1.5-6.3,4c-1.2,2.5-0.8,5.6,1.1,7.7
			c1.3,1.5,2.7,2.8,4,4c-13.4-3.6-26.6-10.6-38.9-20.8c-4.4-3.6-8.5-7.5-12.1-11.4c-1.4-1.5-3.3-3.6-3.7-4.1c0,0-0.1-0.1-0.1-0.1
			l-0.1-0.1c-1.3-1.8-3.4-2.8-5.6-2.8c-0.7,0-1.4,0.1-2.1,0.3c-2.8,0.9-4.8,3.5-4.9,6.5C100.8,192.6,101,194.9,101.4,197.2
			L101.4,197.2z"/>
	</g>
	<g>
		<path class="st1" d="M29.6,175.3c-5.2-16.2-6.7-33.3-3.7-50.9c1.3-7.3,3.3-14.3,5.5-21.4c0,0,13.8-45.3,60.5-66
			c0,0,16.1-8.5,40.3-9.1c0,0-3.3-3.2-5.4-4.6c-11.4-7.6-28.4-10.1-38.7,0.6c-3.1,3.2-5.7,6.7-8.6,9.9c-3.3,3.6-7.3,6.6-11.9,8.3
			c-4,1.5-8,1.2-12.1,1.9c-4.2,0.7-8.5,2.2-11.9,4.9c-3.7,3-5.2,7-5.6,11.6c-0.4,3.6-0.3,7.3-0.5,10.9c-0.5,10.6-3.9,13.6-11.5,19.5
			c-3.2,2.4-5.9,5.6-7.9,9c-6,10.6,3.6,21.6,4.1,32.3c0.1,2.2-0.1,4.4-0.9,6.5c-0.8,2.3-2.4,3.8-3.7,5.7c-1.8,2.5-3,5.5-2.5,8.6
			c0.5,3.1,2.1,6,3.6,8.7c2.9,4.8,6.5,9.1,10.3,13.2C29.2,174.9,29.4,175.1,29.6,175.3"/>
		<linearGradient id="SVGID_1_" gradientUnits="userSpaceOnUse" x1="53.4889" y1="247.7011" x2="177.9246" y2="115.3228">
			<stop  offset="0" style="stop-color:#E01D84"/>
			<stop  offset="0.4006" style="stop-color:#DF1D85"/>
			<stop  offset="0.7698" style="stop-color:#932C87"/>
			<stop  offset="1" style="stop-color:#5D2F88"/>
		</linearGradient>
		<path class="st2" d="M107.9,190.5c-0.5,18.5,18.8,35.7,18.8,35.7c-24.2-10-35.3-31.7-35.3-31.7s-16.3-27.8-4.5-59.5
			s47.5-38.5,47.5-38.5c29.5,14.3,54.5,18.8,54.5,18.8c52.7,8.8,49.7-17,49.7-17c0.5-22.2-33-45.8-33-45.8
			C145.9,8.4,91.9,37,91.9,37c-46.7,20.7-60.5,66-60.5,66c-2.2,7.1-4.2,14.1-5.5,21.4c-5.1,29.7,2.6,57.8,19.3,82.8
			c26,38.8,68.2,52.2,68.2,52.2c62.5,21.2,105.2-10,105.2-10c39.3-27,47.2-58.2,47.2-58.2c-31.7,24.8-45.3,22.5-45.3,22.5
			c23-10,32.8-27.3,32.8-27.3c21.5-29.3,14.2-60.2,14.2-60.2c-13.7,29.8-26.2,38-26.2,38c33.7-51.3,0.2-82.3,0.2-82.3
			c13.7,29.2-4.5,64.8-4.5,64.8c-15.3,32.2-37,43.7-37,43.7c24.2,4.5,42-11.8,42-11.8c-34.7,37.5-72.3,35.7-72.3,35.7
			c15.8,17.7,39.5,16.2,39.5,16.2c-31,7.3-60.1-3-84-22.9c-4.5-3.7-8.8-7.7-12.8-12C112.2,195.5,108.7,191.6,107.9,190.5
			L107.9,190.5z"/>
		
			<radialGradient id="SVGID_2_" cx="190.449" cy="80.1998" r="121.5817" gradientTransform="matrix(1 2.387956e-03 -1.996728e-03 0.8362 0.1607 12.6849)" gradientUnits="userSpaceOnUse">
			<stop  offset="0" style="stop-color:#E01D84"/>
			<stop  offset="0.1391" style="stop-color:#DE1E85"/>
			<stop  offset="0.2851" style="stop-color:#D62085"/>
			<stop  offset="0.4342" style="stop-color:#C92386"/>
			<stop  offset="0.5856" style="stop-color:#B72786"/>
			<stop  offset="0.7386" style="stop-color:#9D2B87"/>
			<stop  offset="0.8909" style="stop-color:#7C2E88"/>
			<stop  offset="1" style="stop-color:#5D2F88"/>
		</radialGradient>
		<path class="st3" d="M31.3,103c0,0,13.8-45.3,60.5-66c0,0,54-28.7,113.7,15.5c0,0,33.5,23.7,33,45.8c0,0,3,25.8-49.7,17
			c0,0-25-4.5-54.5-18.8c0,0-5.4-2.3-8.5-3.8c-3.1-1.5-12.1-4.8-12.1-4.8C72,75.4,49.6,107.3,49.6,107.3
			c-13.9,15.6-17.2,35.8-17.2,35.8c-3.9,19.3,0.3,39.6,0.3,39.6s0.5,2.2,0.6,2.5c0,0-1.4-2.9-4.4-12.3c0,0-2.9-8.8-4.1-21.9
			c0,0-1.4-13.6,1.6-28.5C26.3,122.5,28.7,110.7,31.3,103z"/>
		<linearGradient id="SVGID_3_" gradientUnits="userSpaceOnUse" x1="83.2048" y1="62.3357" x2="137.3636" y2="62.3357">
			<stop  offset="0" style="stop-color:#E01D84"/>
			<stop  offset="0.2382" style="stop-color:#DA1E85"/>
			<stop  offset="0.6577" style="stop-color:#C72085"/>
			<stop  offset="0.9993" style="stop-color:#B52284"/>
		</linearGradient>
		<path class="st4" d="M137.4,58.2l-34.1-10.6c-0.2,0-1.2-0.5-3,0c0,0-20.1,5.1-16.6,16.1c0,0,2.1,6.9,7.8,13.6l37.5-1.8L137.4,58.2
			z"/>
		<circle class="st0" cx="171.6" cy="73.2" r="5.4"/>
	</g>
</g>
</svg>
