<?xml version="1.0" encoding="utf-8"?>

<svg version="1.1" id="Ebene_1" xmlns="http://www.w3.org/2000/svg" xmlns:xlink="http://www.w3.org/1999/xlink" x="0px" y="0px"
	 viewBox="0 0 283.5 283.5" style="enable-background:new 0 0 283.5 283.5;" xml:space="preserve">
<style type="text/css">
	.st0{fill:url(#SVGID_1_);}
</style>
<g>
	<linearGradient id="SVGID_1_" gradientUnits="userSpaceOnUse" x1="7.8519" y1="141.7323" x2="275.6126" y2="141.7323">
		<stop  offset="0" style="stop-color:#E01D84"/>
		<stop  offset="0.4006" style="stop-color:#DF1D85"/>
		<stop  offset="0.7698" style="stop-color:#932C87"/>
		<stop  offset="1" style="stop-color:#5D2F88"/>
	</linearGradient>
	<path class="st0" d="M83.6,63.7c0,0,2.1,6.9,7.8,13.6l37.5-1.8l1.5-3.1l-15.1,0.7l-22.6,1.1c-4.5-5.8-6.3-11.4-6.3-11.5
		c-0.5-1.4-0.3-2.7,0.4-4c2.5-4.5,11-7.5,14.1-8.3l0,0l0,0c0.3-0.1,0.5-0.1,0.7-0.1c0.2,0,0.4,0,0.5,0.1c0.1,0,0.1,0,0.2,0.1
		l17.3,5.4l16.3,5.1l1.3-2.7l-34.1-10.6c-0.1,0-0.6-0.2-1.5-0.2c-0.4,0-0.9,0.1-1.5,0.2C100.2,47.6,80.1,52.7,83.6,63.7z
		 M26.3,162.6c0.1,0.3,0.1,0.6,0.2,0.9c0-0.1,0-0.2-0.1-0.4C26.4,162.9,26.3,162.8,26.3,162.6z M24.5,138.1
		C24.5,138.1,24.5,138.1,24.5,138.1c0-0.4,0-0.7,0.1-1.1C24.5,137.4,24.5,137.8,24.5,138.1z M171.6,78.7c3,0,5.4-2.4,5.4-5.4
		s-2.4-5.4-5.4-5.4s-5.4,2.4-5.4,5.4S168.6,78.7,171.6,78.7z M265.7,184.2L265.7,184.2c-1.1,0-2.2,0.3-3.1,0.7
		c18.5-29.8,11.9-59,11.5-60.3c-0.7-2.9-3.2-5.1-6.1-5.3c-0.2,0-0.5,0-0.7,0c-1.5,0-3,0.5-4.2,1.4c0.1-6.1-0.7-12.4-2.6-18.8
		C256,86,246.5,77.1,246.1,76.7c-1.3-1.2-3-1.9-4.8-1.9c-1.1,0-2.3,0.3-3.3,0.8c-2.8-4.4-6.4-8.8-10.8-13.4
		c-8.4-8.8-16.7-14.8-17.6-15.4c-23.3-17.2-48.5-26-74.8-26c-1.3-1.1-2.9-2.5-4.2-3.4c-7.4-4.9-16.4-7.8-24.7-7.8
		c-9.1,0-17,3.2-22.9,9.3c-2,2.1-3.8,4.2-5.6,6.3c-1.1,1.3-2.2,2.6-3.3,3.8c-2.6,2.9-5.8,5.1-9.1,6.3c-1.7,0.6-3.6,0.8-5.8,1
		c-1.5,0.1-3.2,0.3-5,0.6c-6.1,1.1-11.2,3.2-15.1,6.3c-4.8,3.9-7.5,9.2-8.2,16.4c-0.3,2.6-0.3,5.1-0.4,7.6c0,1.3-0.1,2.5-0.1,3.7
		c-0.4,7.5-1.8,8.9-8.8,14.3c-3.9,3-7.3,6.9-9.7,11.1c-5.4,9.5-2.1,18.8,0.6,26.2c1.3,3.6,2.5,7,2.6,9.8c0.1,1.4-0.1,2.7-0.5,3.8
		c-0.2,0.6-0.8,1.3-1.5,2.3c-0.4,0.5-0.9,1.1-1.3,1.8c-3.1,4.4-4.4,9.1-3.7,13.7c0.7,4.3,2.7,8.1,4.6,11.2
		c2.8,4.6,6.3,9.2,10.8,13.9c0.3,0.8,0.5,1.6,0.8,2.4c1.6,4.6,2.5,6.5,2.7,6.8c0,0.1,0.1,0.1,0.1,0.2c3.3,7.7,7.5,15.3,12.4,22.7
		c26.8,40,69.1,54.1,71.8,54.9c15.1,5.1,30.5,7.7,45.5,7.7c39,0,63.8-17.2,65.9-18.6c39.3-27,48.8-58.1,49.8-61.9
		c0.2-0.6,0.3-1.3,0.3-2C272.7,187.3,269.6,184.2,265.7,184.2z M239,114.6c-1.8,15.9-8.2,28.7-8.3,28.9c0,0-0.1,0.1-0.1,0.2
		c-14,29.4-33.8,40.4-34,40.5c-2.6,1.4-4.1,4.3-3.6,7.2s2.7,5.3,5.7,5.8c2.1,0.4,4.2,0.7,6.3,0.8c-3.5,1.7-7.1,3.3-10.7,4.5
		c-12.2,4.3-21.3,4.6-23.7,4.6c-0.3,0-0.5,0-0.6,0c-0.1,0-0.2,0-0.3,0c-2.7,0-5.1,1.5-6.3,4c-1.2,2.5-0.8,5.6,1.1,7.7
		c1.3,1.5,2.7,2.8,4,4c-13.4-3.6-26.6-10.6-38.9-20.8c-4.4-3.6-8.5-7.5-12.1-11.4c-1.4-1.5-3.3-3.6-3.7-4.1c0,0-0.1-0.1-0.1-0.1
		l-0.1-0.1c-1.3-1.8-3.4-2.8-5.6-2.8c-0.7,0-1.4,0.1-2.1,0.3c-2.8,0.9-4.8,3.5-4.9,6.5c-0.1,2.2,0.1,4.5,0.5,6.8
		c-2.5-3.4-3.7-5.8-3.8-5.8c-0.1-0.1-0.1-0.2-0.2-0.3c-0.1-0.2-14.4-25.5-4-53.5c8.7-23.3,32.8-31.5,40.1-33.5
		c29,13.7,53,18.1,54,18.3c0,0,0.1,0,0.1,0c7.4,1.2,14.2,1.9,20.2,1.9c0.2,0,0.4,0,0.7,0C222.4,124.2,232.6,121,239,114.6z
		 M134.8,30.9c24.2,0,47.3,8.1,68.9,24.1l0,0l0,0c0.1,0.1,8.2,5.8,16.3,14.2c7.2,7.5,15.7,18.7,15.5,29.1l0,0.2l0,0.2
		c0,0,0.4,4.3-3.1,8.2c-4.2,4.7-12.5,7.3-23.9,7.3c-5.6,0-12.1-0.6-19.2-1.8c-0.2,0-25-4.6-53.7-18.6l-0.1,0l-0.1,0
		c-0.1,0-5.4-2.3-8.4-3.8c-3.2-1.5-12-4.7-12.4-4.9l-0.1,0l-0.1,0c-6.7-2-13.4-3-19.8-3c-29.8,0-45.9,21.2-47.5,23.4
		c-14,15.8-17.6,35.7-17.9,37.1c-0.7,3.6-1.2,7.2-1.4,10.7c-0.1-0.9-0.2-1.7-0.3-2.6c0-0.1-1.3-13.4,1.5-27.6c0-0.1,2.4-11.7,5-19.1
		l0-0.1l0-0.1c0-0.1,3.5-11.2,12.5-24.6C55,67,69.7,50.1,93.1,39.8l0.1,0l0.1,0C93.4,39.6,110.2,30.9,134.8,30.9L134.8,30.9z
		 M29.6,175.3c-0.2-0.2-0.4-0.4-0.6-0.7c-3.8-4-7.4-8.4-10.3-13.2c-1.6-2.6-3.2-5.6-3.6-8.7c-0.5-3.1,0.7-6.1,2.5-8.6
		c1.4-1.9,2.9-3.4,3.7-5.7c0.7-2.1,1-4.3,0.9-6.5C21.6,121.4,12,110.4,18,99.8c2-3.5,4.7-6.6,7.9-9c7.6-5.9,11-8.9,11.5-19.5
		c0.2-3.6,0.1-7.3,0.5-10.9c0.5-4.6,1.9-8.6,5.6-11.6c3.4-2.7,7.7-4.2,11.9-4.9c4.1-0.7,8.1-0.4,12.1-1.9c4.6-1.7,8.7-4.6,11.9-8.3
		c2.9-3.3,5.6-6.8,8.6-9.9c10.4-10.6,27.3-8.2,38.7-0.6c2.1,1.4,5.4,4.6,5.4,4.6c0,0,0,0,0,0C107.9,28.5,91.8,37,91.8,37
		c-46.7,20.7-60.5,66-60.5,66c-1.3,3.8-2.6,8.5-3.5,12.4c0,0,0,0,0,0c0,0,0,0,0,0c0,0.1,0,0.2-0.1,0.3c-0.5,1.9-0.9,3.8-1.3,5.8
		c-0.1,0.6-0.2,1-0.2,1c-1,5.2-1.5,10.2-1.7,14.6c0,0.3,0,0.6,0,1c0,0,0,0,0,0c-0.3,7.6,0.2,12.9,0.2,12.9c0.1,0.9,0.2,1.7,0.3,2.5
		c0,0.2,0,0.4,0.1,0.7c0-0.1,0-0.3,0-0.4c1.3,11.5,3.8,19.2,3.8,19.2c0.4,1.1,0.7,2.2,1,3.1c-0.1-0.3-0.2-0.6-0.3-0.9
		C29.5,175.1,29.6,175.2,29.6,175.3z M30.9,179.1C30.9,179.1,30.9,179.1,30.9,179.1C30.9,179.1,30.9,179.1,30.9,179.1
		C30.9,179.1,30.9,179.1,30.9,179.1z M218.6,249.4c0,0-42.7,31.2-105.2,10c0,0-42.2-13.3-68.2-52.2c-4.8-7.2-8.9-14.6-12.1-22.2
		c-0.2-0.6-0.5-2.3-0.5-2.3s-4.2-20.2-0.3-39.6c0,0,3.4-20.2,17.2-35.8c0,0,15.6-22.3,45.2-22.3c5.8,0,12.1,0.9,19,2.9
		c0,0,9,3.2,12.1,4.8c3.1,1.5,8.5,3.8,8.5,3.8c0.2,0.1,0.3,0.2,0.5,0.3c-0.2-0.1-0.3-0.2-0.5-0.2c-0.8,0.2-35.8,7.2-47.5,38.5
		c-11.8,31.7,4.5,59.5,4.5,59.5s11.2,21.7,35.3,31.7c0,0-19.3-17.2-18.8-35.7l0.1,0.1c0.7,1,4.3,4.8,4.3,4.8c4,4.3,8.3,8.3,12.8,12
		c24,19.9,53,30.2,84,22.9c0,0-23.7,1.5-39.5-16.2c0,0,37.7,1.8,72.3-35.7c0,0-17.8,16.3-42,11.8c0,0,21.7-11.5,37-43.7
		c0,0,18.2-35.7,4.5-64.8c0,0,33.5,31-0.2,82.3c0,0,12.5-8.2,26.2-38c0,0,7.3,30.8-14.2,60.2c0,0-9.8,17.3-32.8,27.3
		c0,0,13.7,2.3,45.3-22.5C265.7,191.2,257.9,222.4,218.6,249.4z M24.5,137.1C24.5,137.1,24.5,137.1,24.5,137.1c0,0,0-0.1,0-0.1
		C24.5,137,24.5,137,24.5,137.1z"/>
</g>
</svg>
