<svg xmlns="http://www.w3.org/2000/svg" width="830" height="637.8460969082653"><rect x="0" y="0" width="830" height="637.8460969082653" fill="rgba(255, 255, 255, 0.0)"/><g transform="translate(25 25)"><g><g><line x1="0" y1="40" x2="770" y2="40" stroke="black" stroke-width="2"/><polygon points="770,34.226497308103745 780,40 770,45.773502691896255" fill="black" stroke="black" stroke-width="2" stroke-linecap="square"/></g><g transform="translate(699 0)"><line x1="0" y1="0" x2="0" y2="80" stroke="black" stroke-width="2"/></g><g transform="translate(587 0)"><ellipse cx="33" cy="40" rx="32" ry="32" fill="hsl(102, 60%, 80%)" stroke="black" stroke-width="2"/><text x="0" y="0" fill="black" font-family="Arial, Helvetica, sans-serif" font-size="18px" font-weight="normal" font-style="normal" dominant-baseline="middle" text-anchor="middle" transform="translate(33 40)">h</text></g><g transform="translate(507 0)"><ellipse cx="33" cy="40" rx="32" ry="32" fill="hsl(32, 60%, 80%)" stroke="black" stroke-width="2"/><text x="0" y="0" fill="black" font-family="Arial, Helvetica, sans-serif" font-size="18px" font-weight="normal" font-style="normal" dominant-baseline="middle" text-anchor="middle" transform="translate(33 40)">g</text></g><g transform="translate(427 0)"><ellipse cx="33" cy="40" rx="32" ry="32" fill="hsl(35, 60%, 80%)" stroke="black" stroke-width="2"/><text x="0" y="0" fill="black" font-family="Arial, Helvetica, sans-serif" font-size="18px" font-weight="normal" font-style="normal" dominant-baseline="middle" text-anchor="middle" transform="translate(33 40)">f</text></g><g transform="translate(347 0)"><ellipse cx="33" cy="40" rx="32" ry="32" fill="hsl(253, 60%, 80%)" stroke="black" stroke-width="2"/><text x="0" y="0" fill="black" font-family="Arial, Helvetica, sans-serif" font-size="18px" font-weight="normal" font-style="normal" dominant-baseline="middle" text-anchor="middle" transform="translate(33 40)">e</text></g><g transform="translate(267 0)"><ellipse cx="33" cy="40" rx="32" ry="32" fill="hsl(79, 60%, 80%)" stroke="black" stroke-width="2"/><text x="0" y="0" fill="black" font-family="Arial, Helvetica, sans-serif" font-size="18px" font-weight="normal" font-style="normal" dominant-baseline="middle" text-anchor="middle" transform="translate(33 40)">d</text></g><g transform="translate(187 0)"><ellipse cx="33" cy="40" rx="32" ry="32" fill="hsl(32, 60%, 80%)" stroke="black" stroke-width="2"/><text x="0" y="0" fill="black" font-family="Arial, Helvetica, sans-serif" font-size="18px" font-weight="normal" font-style="normal" dominant-baseline="middle" text-anchor="middle" transform="translate(33 40)">c</text></g><g transform="translate(107 0)"><ellipse cx="33" cy="40" rx="32" ry="32" fill="hsl(44, 60%, 80%)" stroke="black" stroke-width="2"/><text x="0" y="0" fill="black" font-family="Arial, Helvetica, sans-serif" font-size="18px" font-weight="normal" font-style="normal" dominant-baseline="middle" text-anchor="middle" transform="translate(33 40)">b</text></g><g transform="translate(27 0)"><ellipse cx="33" cy="40" rx="32" ry="32" fill="hsl(321, 60%, 80%)" stroke="black" stroke-width="2"/><text x="0" y="0" fill="black" font-family="Arial, Helvetica, sans-serif" font-size="18px" font-weight="normal" font-style="normal" dominant-baseline="middle" text-anchor="middle" transform="translate(33 40)">a</text></g></g><g transform="translate(0 100)"><g><line x1="0" y1="40" x2="350" y2="40" stroke="black" stroke-width="2"/><polygon points="350,34.226497308103745 360,40 350,45.773502691896255" fill="black" stroke="black" stroke-width="2" stroke-linecap="square"/></g><g transform="translate(279 0)"><line x1="0" y1="0" x2="0" y2="80" stroke="black" stroke-width="2"/></g><g transform="translate(227 0)"><ellipse cx="33" cy="40" rx="32" ry="32" fill="hsl(244, 60%, 80%)" stroke="black" stroke-width="2"/><text x="0" y="0" fill="black" font-family="Arial, Helvetica, sans-serif" font-size="18px" font-weight="normal" font-style="normal" dominant-baseline="middle" text-anchor="middle" transform="translate(33 40)">x</text></g></g><g transform="translate(0 200)"><rect x="0" y="10" width="780" height="58" fill="rgba(255, 255, 255, 0.0)" stroke="black" stroke-width="2" rx="0"/><text x="390" y="40" fill="black" font-family="Arial, Helvetica, sans-serif" font-size="24px" font-weight="normal" font-style="normal" dominant-baseline="middle" text-anchor="middle" width="780">windowWhen()</text></g><g transform="translate(0 300)"><g><line x1="0" y1="40" x2="770" y2="40" stroke="black" stroke-width="2"/><polygon points="770,34.226497308103745 780,40 770,45.773502691896255" fill="black" stroke="black" stroke-width="2" stroke-linecap="square"/></g><g transform="translate(699 0)"><line x1="0" y1="0" x2="0" y2="80" stroke="black" stroke-width="2"/></g><g transform="rotate(30 520 40) translate(520 0)"><g><line x1="0" y1="40" x2="277.8460969082653" y2="40" stroke="black" stroke-width="2"/><polygon points="277.8460969082653,34.226497308103745 287.8460969082653,40 277.8460969082653,45.773502691896255" fill="black" stroke="black" stroke-width="2" stroke-linecap="square"/></g><g transform="translate(206.84609690826528 0)"><line x1="0" y1="0" x2="0" y2="80" stroke="black" stroke-width="2"/></g><g transform="translate(82.47005383792515 0)"><ellipse cx="33" cy="40" rx="32" ry="32" fill="hsl(102, 60%, 80%)" stroke="black" stroke-width="2"/><text x="0" y="0" fill="black" font-family="Arial, Helvetica, sans-serif" font-size="18px" font-weight="normal" font-style="normal" dominant-baseline="middle" text-anchor="middle" transform="translate(33 40)">h</text></g><g transform="translate(-9.90598923241497 0)"><ellipse cx="33" cy="40" rx="32" ry="32" fill="hsl(32, 60%, 80%)" stroke="black" stroke-width="2"/><text x="0" y="0" fill="black" font-family="Arial, Helvetica, sans-serif" font-size="18px" font-weight="normal" font-style="normal" dominant-baseline="middle" text-anchor="middle" transform="translate(33 40)">g</text></g></g><g transform="rotate(30 260 40) translate(260 0)"><g><line x1="0" y1="40" x2="416.4101615137754" y2="40" stroke="black" stroke-width="2"/><polygon points="416.4101615137754,34.226497308103745 426.4101615137754,40 416.4101615137754,45.773502691896255" fill="black" stroke="black" stroke-width="2" stroke-linecap="square"/></g><g transform="translate(345.4101615137754 0)"><line x1="0" y1="0" x2="0" y2="80" stroke="black" stroke-width="2"/></g><g transform="translate(290.3161507461904 0)"><ellipse cx="33" cy="40" rx="32" ry="32" fill="hsl(32, 60%, 80%)" stroke="black" stroke-width="2"/><text x="0" y="0" fill="black" font-family="Arial, Helvetica, sans-serif" font-size="18px" font-weight="normal" font-style="normal" dominant-baseline="middle" text-anchor="middle" transform="translate(33 40)">g</text></g><g transform="translate(197.9401076758503 0)"><ellipse cx="33" cy="40" rx="32" ry="32" fill="hsl(35, 60%, 80%)" stroke="black" stroke-width="2"/><text x="0" y="0" fill="black" font-family="Arial, Helvetica, sans-serif" font-size="18px" font-weight="normal" font-style="normal" dominant-baseline="middle" text-anchor="middle" transform="translate(33 40)">f</text></g><g transform="translate(105.56406460551017 0)"><ellipse cx="33" cy="40" rx="32" ry="32" fill="hsl(253, 60%, 80%)" stroke="black" stroke-width="2"/><text x="0" y="0" fill="black" font-family="Arial, Helvetica, sans-serif" font-size="18px" font-weight="normal" font-style="normal" dominant-baseline="middle" text-anchor="middle" transform="translate(33 40)">e</text></g><g transform="translate(13.188021535170058 0)"><ellipse cx="33" cy="40" rx="32" ry="32" fill="hsl(79, 60%, 80%)" stroke="black" stroke-width="2"/><text x="0" y="0" fill="black" font-family="Arial, Helvetica, sans-serif" font-size="18px" font-weight="normal" font-style="normal" dominant-baseline="middle" text-anchor="middle" transform="translate(33 40)">d</text></g></g><g transform="rotate(30 0 40)"><g><line x1="0" y1="40" x2="370.2221399786054" y2="40" stroke="black" stroke-width="2"/><polygon points="370.2221399786054,34.226497308103745 380.2221399786054,40 370.2221399786054,45.773502691896255" fill="black" stroke="black" stroke-width="2" stroke-linecap="square"/></g><g transform="translate(299.2221399786054 0)"><line x1="0" y1="0" x2="0" y2="80" stroke="black" stroke-width="2"/></g><g transform="translate(221.03411844343532 0)"><ellipse cx="33" cy="40" rx="32" ry="32" fill="hsl(32, 60%, 80%)" stroke="black" stroke-width="2"/><text x="0" y="0" fill="black" font-family="Arial, Helvetica, sans-serif" font-size="18px" font-weight="normal" font-style="normal" dominant-baseline="middle" text-anchor="middle" transform="translate(33 40)">c</text></g><g transform="translate(128.6580753730952 0)"><ellipse cx="33" cy="40" rx="32" ry="32" fill="hsl(44, 60%, 80%)" stroke="black" stroke-width="2"/><text x="0" y="0" fill="black" font-family="Arial, Helvetica, sans-serif" font-size="18px" font-weight="normal" font-style="normal" dominant-baseline="middle" text-anchor="middle" transform="translate(33 40)">b</text></g><g transform="translate(36.282032302755084 0)"><ellipse cx="33" cy="40" rx="32" ry="32" fill="hsl(321, 60%, 80%)" stroke="black" stroke-width="2"/><text x="0" y="0" fill="black" font-family="Arial, Helvetica, sans-serif" font-size="18px" font-weight="normal" font-style="normal" dominant-baseline="middle" text-anchor="middle" transform="translate(33 40)">a</text></g></g></g></g></svg>