<svg xmlns="http://www.w3.org/2000/svg" viewBox="0 0 410 240" width="410" height="240"><path fill="rgba(255, 255, 255, 0.0)" d="M0 0h410v240H0z"/><g stroke="#000" stroke-width="2"><path d="M25 45h350"/><path stroke-linecap="square" d="M375 39.226L385 45l-10 5.774z"/></g><path stroke="#000" stroke-width="2" d="M344 35v20"/><g transform="translate(265 25)"><circle cx="20" cy="20" fill="hsl(306, 60%, 80%)" stroke="#000" stroke-width="2" r="19"/><text font-family="Arial, Helvetica, sans-serif" font-size="18" dominant-baseline="middle" text-anchor="middle" transform="translate(20 20)">6</text></g><g transform="translate(185 25)"><circle cx="20" cy="20" fill="hsl(147, 60%, 80%)" stroke="#000" stroke-width="2" r="19"/><text font-family="Arial, Helvetica, sans-serif" font-size="18" dominant-baseline="middle" text-anchor="middle" transform="translate(20 20)">3</text></g><g transform="translate(105 25)"><circle cx="20" cy="20" fill="hsl(117, 60%, 80%)" stroke="#000" stroke-width="2" r="19"/><text font-family="Arial, Helvetica, sans-serif" font-size="18" dominant-baseline="middle" text-anchor="middle" transform="translate(20 20)">4</text></g><g transform="translate(45 25)"><circle cx="20" cy="20" fill="hsl(206, 60%, 80%)" stroke="#000" stroke-width="2" r="19"/><text font-family="Arial, Helvetica, sans-serif" font-size="18" dominant-baseline="middle" text-anchor="middle" transform="translate(20 20)">2</text></g><g transform="translate(25 85)"><rect y="10" width="360" height="48" fill="rgba(255, 255, 255, 0.0)" stroke="#000" stroke-width="2" rx="0"/><text x="180" y="35" font-family="Arial, Helvetica, sans-serif" font-size="24" dominant-baseline="middle" text-anchor="middle">some(x =&gt; x % 2 !== 0)</text></g><g><g stroke="#000" stroke-width="2"><path d="M25 195h230"/><path stroke-linecap="square" d="M255 189.226L265 195l-10 5.774z"/></g><path stroke="#000" stroke-width="2" d="M224 185v20"/><g transform="translate(185 175)"><circle cx="20" cy="20" fill="hsl(190, 60%, 80%)" stroke="#000" stroke-width="2" r="19"/><text font-family="Arial, Helvetica, sans-serif" font-size="18" dominant-baseline="middle" text-anchor="middle" transform="translate(20 20)">t</text></g></g></svg>